<mxfile host="Electron" modified="2024-04-14T06:42:14.010Z" agent="Mozilla/5.0 (Windows NT 10.0; Win64; x64) AppleWebKit/537.36 (KHTML, like Gecko) draw.io/24.1.0 Chrome/120.0.6099.109 Electron/28.1.0 Safari/537.36" etag="k1_B1n_4LbaGcKSp0A36" version="24.1.0" type="device">
  <diagram name="Page-1" id="lZMr4LBgK8KKKCLWBWSb">
    <mxGraphModel dx="2032" dy="1207" grid="1" gridSize="10" guides="1" tooltips="1" connect="1" arrows="1" fold="1" page="1" pageScale="1" pageWidth="827" pageHeight="1169" math="0" shadow="0">
      <root>
        <mxCell id="0" />
        <mxCell id="1" parent="0" />
        <mxCell id="Uv9UQddPjhOq4ZetmZ8k-1" value="&lt;h1&gt;會員&lt;/h1&gt;" style="rounded=0;whiteSpace=wrap;html=1;fillColor=#dae8fc;strokeColor=#6c8ebf;" parent="1" vertex="1">
          <mxGeometry x="200" y="935" width="120" height="60" as="geometry" />
        </mxCell>
        <mxCell id="Uv9UQddPjhOq4ZetmZ8k-2" value="&lt;h1&gt;進站&lt;/h1&gt;" style="rhombus;whiteSpace=wrap;html=1;fillColor=#fff2cc;strokeColor=#d6b656;" parent="1" vertex="1">
          <mxGeometry x="420" y="930" width="130" height="70" as="geometry" />
        </mxCell>
        <mxCell id="Uv9UQddPjhOq4ZetmZ8k-30" style="edgeStyle=orthogonalEdgeStyle;rounded=0;orthogonalLoop=1;jettySize=auto;html=1;exitX=0;exitY=0.5;exitDx=0;exitDy=0;" parent="1" source="Uv9UQddPjhOq4ZetmZ8k-3" edge="1">
          <mxGeometry relative="1" as="geometry">
            <mxPoint x="670" y="970" as="targetPoint" />
          </mxGeometry>
        </mxCell>
        <mxCell id="Uv9UQddPjhOq4ZetmZ8k-3" value="&lt;h1&gt;遊戲&lt;/h1&gt;" style="rounded=0;whiteSpace=wrap;html=1;fillColor=#dae8fc;strokeColor=#6c8ebf;" parent="1" vertex="1">
          <mxGeometry x="640" y="935" width="120" height="60" as="geometry" />
        </mxCell>
        <mxCell id="Uv9UQddPjhOq4ZetmZ8k-4" value="" style="endArrow=none;html=1;rounded=0;entryX=1;entryY=0.5;entryDx=0;entryDy=0;exitX=0;exitY=0.5;exitDx=0;exitDy=0;" parent="1" source="Uv9UQddPjhOq4ZetmZ8k-3" target="Uv9UQddPjhOq4ZetmZ8k-2" edge="1">
          <mxGeometry relative="1" as="geometry">
            <mxPoint x="450" y="1160" as="sourcePoint" />
            <mxPoint x="610" y="1160" as="targetPoint" />
          </mxGeometry>
        </mxCell>
        <mxCell id="Uv9UQddPjhOq4ZetmZ8k-5" value="&lt;h1&gt;N&lt;/h1&gt;" style="resizable=0;html=1;whiteSpace=wrap;align=right;verticalAlign=bottom;" parent="Uv9UQddPjhOq4ZetmZ8k-4" connectable="0" vertex="1">
          <mxGeometry x="1" relative="1" as="geometry">
            <mxPoint x="20" y="15" as="offset" />
          </mxGeometry>
        </mxCell>
        <mxCell id="Uv9UQddPjhOq4ZetmZ8k-6" value="" style="endArrow=none;html=1;rounded=0;exitX=1;exitY=0.5;exitDx=0;exitDy=0;entryX=0;entryY=0.5;entryDx=0;entryDy=0;" parent="1" source="Uv9UQddPjhOq4ZetmZ8k-1" target="Uv9UQddPjhOq4ZetmZ8k-2" edge="1">
          <mxGeometry relative="1" as="geometry">
            <mxPoint x="450" y="1160" as="sourcePoint" />
            <mxPoint x="610" y="1160" as="targetPoint" />
          </mxGeometry>
        </mxCell>
        <mxCell id="Uv9UQddPjhOq4ZetmZ8k-7" value="&lt;h1&gt;&lt;font style=&quot;font-size: 22px;&quot;&gt;M&lt;/font&gt;&lt;/h1&gt;" style="resizable=0;html=1;whiteSpace=wrap;align=right;verticalAlign=bottom;" parent="Uv9UQddPjhOq4ZetmZ8k-6" connectable="0" vertex="1">
          <mxGeometry x="1" relative="1" as="geometry">
            <mxPoint x="-10" y="15" as="offset" />
          </mxGeometry>
        </mxCell>
        <mxCell id="Uv9UQddPjhOq4ZetmZ8k-8" value="&lt;h2&gt;&lt;u&gt;編號&lt;/u&gt;&lt;/h2&gt;" style="ellipse;whiteSpace=wrap;html=1;" parent="1" vertex="1">
          <mxGeometry x="290" y="810" width="120" height="50" as="geometry" />
        </mxCell>
        <mxCell id="Uv9UQddPjhOq4ZetmZ8k-9" value="" style="endArrow=none;html=1;rounded=0;entryX=0.5;entryY=1;entryDx=0;entryDy=0;exitX=0.75;exitY=0;exitDx=0;exitDy=0;" parent="1" source="Uv9UQddPjhOq4ZetmZ8k-1" target="Uv9UQddPjhOq4ZetmZ8k-8" edge="1">
          <mxGeometry relative="1" as="geometry">
            <mxPoint x="300" y="930" as="sourcePoint" />
            <mxPoint x="760" y="1160" as="targetPoint" />
          </mxGeometry>
        </mxCell>
        <mxCell id="Uv9UQddPjhOq4ZetmZ8k-10" value="&lt;h2&gt;&lt;span style=&quot;font-weight: normal;&quot;&gt;姓名&lt;/span&gt;&lt;/h2&gt;" style="ellipse;whiteSpace=wrap;html=1;align=center;" parent="1" vertex="1">
          <mxGeometry x="130" y="810" width="110" height="50" as="geometry" />
        </mxCell>
        <mxCell id="Uv9UQddPjhOq4ZetmZ8k-11" value="&lt;h2&gt;&lt;span style=&quot;font-weight: normal;&quot;&gt;住址&lt;/span&gt;&lt;/h2&gt;" style="ellipse;whiteSpace=wrap;html=1;align=center;" parent="1" vertex="1">
          <mxGeometry x="20" y="880" width="120" height="40" as="geometry" />
        </mxCell>
        <mxCell id="Uv9UQddPjhOq4ZetmZ8k-12" value="&lt;h2&gt;&lt;span style=&quot;font-weight: normal;&quot;&gt;性別&lt;/span&gt;&lt;/h2&gt;" style="ellipse;whiteSpace=wrap;html=1;align=center;" parent="1" vertex="1">
          <mxGeometry x="20" y="970" width="120" height="50" as="geometry" />
        </mxCell>
        <mxCell id="Uv9UQddPjhOq4ZetmZ8k-13" value="&lt;h2&gt;&lt;span style=&quot;font-weight: normal;&quot;&gt;出生年月日&lt;/span&gt;&lt;/h2&gt;" style="ellipse;whiteSpace=wrap;html=1;align=center;" parent="1" vertex="1">
          <mxGeometry x="90" y="1060" width="120" height="50" as="geometry" />
        </mxCell>
        <mxCell id="Uv9UQddPjhOq4ZetmZ8k-14" value="&lt;h2&gt;&lt;span style=&quot;font-weight: normal;&quot;&gt;密碼&lt;/span&gt;&lt;/h2&gt;" style="ellipse;whiteSpace=wrap;html=1;align=center;" parent="1" vertex="1">
          <mxGeometry x="240" y="1070" width="120" height="50" as="geometry" />
        </mxCell>
        <mxCell id="Uv9UQddPjhOq4ZetmZ8k-15" value="" style="endArrow=none;html=1;rounded=0;entryX=0.5;entryY=0;entryDx=0;entryDy=0;exitX=0.5;exitY=1;exitDx=0;exitDy=0;" parent="1" source="Uv9UQddPjhOq4ZetmZ8k-1" target="Uv9UQddPjhOq4ZetmZ8k-14" edge="1">
          <mxGeometry relative="1" as="geometry">
            <mxPoint x="300" y="1000" as="sourcePoint" />
            <mxPoint x="610" y="1150" as="targetPoint" />
          </mxGeometry>
        </mxCell>
        <mxCell id="Uv9UQddPjhOq4ZetmZ8k-16" value="" style="endArrow=none;html=1;rounded=0;exitX=0.5;exitY=1;exitDx=0;exitDy=0;entryX=0.5;entryY=0;entryDx=0;entryDy=0;" parent="1" source="Uv9UQddPjhOq4ZetmZ8k-10" target="Uv9UQddPjhOq4ZetmZ8k-1" edge="1">
          <mxGeometry relative="1" as="geometry">
            <mxPoint x="450" y="1150" as="sourcePoint" />
            <mxPoint x="610" y="1150" as="targetPoint" />
          </mxGeometry>
        </mxCell>
        <mxCell id="Uv9UQddPjhOq4ZetmZ8k-17" value="" style="endArrow=none;html=1;rounded=0;exitX=1;exitY=1;exitDx=0;exitDy=0;entryX=0;entryY=0.25;entryDx=0;entryDy=0;" parent="1" source="Uv9UQddPjhOq4ZetmZ8k-11" target="Uv9UQddPjhOq4ZetmZ8k-1" edge="1">
          <mxGeometry relative="1" as="geometry">
            <mxPoint x="450" y="1150" as="sourcePoint" />
            <mxPoint x="610" y="1150" as="targetPoint" />
          </mxGeometry>
        </mxCell>
        <mxCell id="Uv9UQddPjhOq4ZetmZ8k-18" value="" style="endArrow=none;html=1;rounded=0;exitX=0.908;exitY=0.25;exitDx=0;exitDy=0;exitPerimeter=0;entryX=0;entryY=0.65;entryDx=0;entryDy=0;entryPerimeter=0;" parent="1" source="Uv9UQddPjhOq4ZetmZ8k-12" target="Uv9UQddPjhOq4ZetmZ8k-1" edge="1">
          <mxGeometry relative="1" as="geometry">
            <mxPoint x="450" y="1150" as="sourcePoint" />
            <mxPoint x="610" y="1150" as="targetPoint" />
          </mxGeometry>
        </mxCell>
        <mxCell id="Uv9UQddPjhOq4ZetmZ8k-19" value="" style="endArrow=none;html=1;rounded=0;exitX=0.5;exitY=0;exitDx=0;exitDy=0;entryX=0.063;entryY=0.992;entryDx=0;entryDy=0;entryPerimeter=0;" parent="1" source="Uv9UQddPjhOq4ZetmZ8k-13" target="Uv9UQddPjhOq4ZetmZ8k-1" edge="1">
          <mxGeometry relative="1" as="geometry">
            <mxPoint x="450" y="1150" as="sourcePoint" />
            <mxPoint x="610" y="1150" as="targetPoint" />
          </mxGeometry>
        </mxCell>
        <mxCell id="Uv9UQddPjhOq4ZetmZ8k-20" value="&lt;h2&gt;&lt;u&gt;代號&lt;/u&gt;&lt;/h2&gt;" style="ellipse;whiteSpace=wrap;html=1;" parent="1" vertex="1">
          <mxGeometry x="550" y="790" width="120" height="50" as="geometry" />
        </mxCell>
        <mxCell id="Uv9UQddPjhOq4ZetmZ8k-21" value="&lt;h2&gt;&lt;span style=&quot;font-weight: normal;&quot;&gt;名稱&lt;/span&gt;&lt;/h2&gt;" style="ellipse;whiteSpace=wrap;html=1;align=center;" parent="1" vertex="1">
          <mxGeometry x="700" y="780" width="110" height="50" as="geometry" />
        </mxCell>
        <mxCell id="Uv9UQddPjhOq4ZetmZ8k-22" value="&lt;h2&gt;&lt;span style=&quot;font-weight: normal;&quot;&gt;遊戲難度&lt;/span&gt;&lt;/h2&gt;" style="ellipse;whiteSpace=wrap;html=1;align=center;" parent="1" vertex="1">
          <mxGeometry x="690" y="1060" width="110" height="50" as="geometry" />
        </mxCell>
        <mxCell id="Uv9UQddPjhOq4ZetmZ8k-23" value="" style="endArrow=none;html=1;rounded=0;entryX=0.442;entryY=0.96;entryDx=0;entryDy=0;entryPerimeter=0;exitX=0.25;exitY=0;exitDx=0;exitDy=0;" parent="1" source="Uv9UQddPjhOq4ZetmZ8k-3" target="Uv9UQddPjhOq4ZetmZ8k-20" edge="1">
          <mxGeometry relative="1" as="geometry">
            <mxPoint x="670" y="930" as="sourcePoint" />
            <mxPoint x="610" y="1150" as="targetPoint" />
          </mxGeometry>
        </mxCell>
        <mxCell id="Uv9UQddPjhOq4ZetmZ8k-24" value="" style="endArrow=none;html=1;rounded=0;entryX=0.259;entryY=0.93;entryDx=0;entryDy=0;entryPerimeter=0;exitX=0.5;exitY=0;exitDx=0;exitDy=0;" parent="1" source="Uv9UQddPjhOq4ZetmZ8k-3" target="Uv9UQddPjhOq4ZetmZ8k-21" edge="1">
          <mxGeometry relative="1" as="geometry">
            <mxPoint x="740" y="930" as="sourcePoint" />
            <mxPoint x="980" y="960" as="targetPoint" />
          </mxGeometry>
        </mxCell>
        <mxCell id="Uv9UQddPjhOq4ZetmZ8k-25" value="" style="endArrow=none;html=1;rounded=0;entryX=0.25;entryY=0.04;entryDx=0;entryDy=0;entryPerimeter=0;exitX=0.5;exitY=1;exitDx=0;exitDy=0;" parent="1" source="Uv9UQddPjhOq4ZetmZ8k-3" target="Uv9UQddPjhOq4ZetmZ8k-22" edge="1">
          <mxGeometry relative="1" as="geometry">
            <mxPoint x="760" y="1000" as="sourcePoint" />
            <mxPoint x="920" y="1000" as="targetPoint" />
          </mxGeometry>
        </mxCell>
        <mxCell id="Uv9UQddPjhOq4ZetmZ8k-26" value="&lt;h2&gt;&lt;span style=&quot;font-weight: normal;&quot;&gt;進站時間&lt;/span&gt;&lt;/h2&gt;" style="ellipse;whiteSpace=wrap;html=1;align=center;" parent="1" vertex="1">
          <mxGeometry x="390" y="1060" width="120" height="50" as="geometry" />
        </mxCell>
        <mxCell id="Uv9UQddPjhOq4ZetmZ8k-27" value="&lt;h2&gt;&lt;span style=&quot;font-weight: normal;&quot;&gt;遊戲得分&lt;/span&gt;&lt;/h2&gt;" style="ellipse;shape=doubleEllipse;margin=3;whiteSpace=wrap;html=1;align=center;" parent="1" vertex="1">
          <mxGeometry x="540" y="1060" width="120" height="50" as="geometry" />
        </mxCell>
        <mxCell id="Uv9UQddPjhOq4ZetmZ8k-28" value="" style="endArrow=none;html=1;rounded=0;exitX=0.386;exitY=0.879;exitDx=0;exitDy=0;exitPerimeter=0;entryX=0.5;entryY=0;entryDx=0;entryDy=0;" parent="1" source="Uv9UQddPjhOq4ZetmZ8k-2" target="Uv9UQddPjhOq4ZetmZ8k-26" edge="1">
          <mxGeometry relative="1" as="geometry">
            <mxPoint x="450" y="1150" as="sourcePoint" />
            <mxPoint x="610" y="1150" as="targetPoint" />
          </mxGeometry>
        </mxCell>
        <mxCell id="Uv9UQddPjhOq4ZetmZ8k-29" value="" style="endArrow=none;html=1;rounded=0;exitX=0.65;exitY=0.864;exitDx=0;exitDy=0;exitPerimeter=0;entryX=0.267;entryY=0.04;entryDx=0;entryDy=0;entryPerimeter=0;" parent="1" source="Uv9UQddPjhOq4ZetmZ8k-2" target="Uv9UQddPjhOq4ZetmZ8k-27" edge="1">
          <mxGeometry relative="1" as="geometry">
            <mxPoint x="540" y="1010" as="sourcePoint" />
            <mxPoint x="588" y="1090" as="targetPoint" />
          </mxGeometry>
        </mxCell>
        <mxCell id="Uv9UQddPjhOq4ZetmZ8k-31" value="&lt;h1&gt;書籍資料&lt;/h1&gt;" style="rounded=0;whiteSpace=wrap;html=1;fillColor=#dae8fc;strokeColor=#6c8ebf;" parent="1" vertex="1">
          <mxGeometry x="180" y="180" width="120" height="60" as="geometry" />
        </mxCell>
        <mxCell id="Uv9UQddPjhOq4ZetmZ8k-32" value="&lt;h2&gt;&lt;u&gt;編號&lt;/u&gt;&lt;/h2&gt;" style="ellipse;whiteSpace=wrap;html=1;" parent="1" vertex="1">
          <mxGeometry x="230" y="60" width="80" height="50" as="geometry" />
        </mxCell>
        <mxCell id="Uv9UQddPjhOq4ZetmZ8k-33" value="&lt;h2&gt;&lt;span style=&quot;font-weight: normal;&quot;&gt;書名&lt;/span&gt;&lt;/h2&gt;" style="ellipse;whiteSpace=wrap;html=1;" parent="1" vertex="1">
          <mxGeometry x="90" y="80" width="80" height="50" as="geometry" />
        </mxCell>
        <mxCell id="Uv9UQddPjhOq4ZetmZ8k-34" value="&lt;h2&gt;&lt;span style=&quot;font-weight: normal;&quot;&gt;作者&lt;/span&gt;&lt;/h2&gt;" style="ellipse;whiteSpace=wrap;html=1;" parent="1" vertex="1">
          <mxGeometry x="30" y="185" width="80" height="50" as="geometry" />
        </mxCell>
        <mxCell id="Uv9UQddPjhOq4ZetmZ8k-35" value="&lt;h2&gt;&lt;span style=&quot;font-weight: normal;&quot;&gt;價格&lt;/span&gt;&lt;/h2&gt;" style="ellipse;whiteSpace=wrap;html=1;" parent="1" vertex="1">
          <mxGeometry x="110" y="280" width="80" height="50" as="geometry" />
        </mxCell>
        <mxCell id="Uv9UQddPjhOq4ZetmZ8k-36" value="" style="endArrow=none;html=1;rounded=0;" parent="1" source="Uv9UQddPjhOq4ZetmZ8k-35" target="Uv9UQddPjhOq4ZetmZ8k-31" edge="1">
          <mxGeometry width="50" height="50" relative="1" as="geometry">
            <mxPoint x="460" y="290" as="sourcePoint" />
            <mxPoint x="510" y="240" as="targetPoint" />
            <Array as="points" />
          </mxGeometry>
        </mxCell>
        <mxCell id="Uv9UQddPjhOq4ZetmZ8k-37" value="" style="endArrow=none;html=1;rounded=0;entryX=0;entryY=0.5;entryDx=0;entryDy=0;" parent="1" source="Uv9UQddPjhOq4ZetmZ8k-34" target="Uv9UQddPjhOq4ZetmZ8k-31" edge="1">
          <mxGeometry width="50" height="50" relative="1" as="geometry">
            <mxPoint x="460" y="290" as="sourcePoint" />
            <mxPoint x="510" y="240" as="targetPoint" />
            <Array as="points" />
          </mxGeometry>
        </mxCell>
        <mxCell id="Uv9UQddPjhOq4ZetmZ8k-38" value="" style="endArrow=none;html=1;rounded=0;entryX=1;entryY=1;entryDx=0;entryDy=0;exitX=0.4;exitY=-0.017;exitDx=0;exitDy=0;exitPerimeter=0;" parent="1" source="Uv9UQddPjhOq4ZetmZ8k-31" target="Uv9UQddPjhOq4ZetmZ8k-33" edge="1">
          <mxGeometry width="50" height="50" relative="1" as="geometry">
            <mxPoint x="460" y="290" as="sourcePoint" />
            <mxPoint x="510" y="240" as="targetPoint" />
          </mxGeometry>
        </mxCell>
        <mxCell id="Uv9UQddPjhOq4ZetmZ8k-39" value="" style="endArrow=none;html=1;rounded=0;" parent="1" source="Uv9UQddPjhOq4ZetmZ8k-31" target="Uv9UQddPjhOq4ZetmZ8k-32" edge="1">
          <mxGeometry width="50" height="50" relative="1" as="geometry">
            <mxPoint x="460" y="290" as="sourcePoint" />
            <mxPoint x="510" y="240" as="targetPoint" />
          </mxGeometry>
        </mxCell>
        <mxCell id="Uv9UQddPjhOq4ZetmZ8k-40" value="&lt;h1&gt;訂購&lt;/h1&gt;" style="rhombus;whiteSpace=wrap;html=1;fillColor=#fff2cc;strokeColor=#d6b656;" parent="1" vertex="1">
          <mxGeometry x="360" y="175" width="110" height="70" as="geometry" />
        </mxCell>
        <mxCell id="Uv9UQddPjhOq4ZetmZ8k-41" value="" style="endArrow=none;html=1;rounded=0;" parent="1" source="Uv9UQddPjhOq4ZetmZ8k-31" target="Uv9UQddPjhOq4ZetmZ8k-40" edge="1">
          <mxGeometry width="50" height="50" relative="1" as="geometry">
            <mxPoint x="460" y="290" as="sourcePoint" />
            <mxPoint x="510" y="240" as="targetPoint" />
          </mxGeometry>
        </mxCell>
        <mxCell id="Uv9UQddPjhOq4ZetmZ8k-42" value="&lt;h1 style=&quot;&quot;&gt;&lt;font style=&quot;font-size: 22px;&quot;&gt;M&lt;/font&gt;&lt;/h1&gt;" style="edgeLabel;html=1;align=center;verticalAlign=bottom;resizable=0;points=[];fontSize=11;labelBackgroundColor=none;textShadow=0;fontColor=default;" parent="Uv9UQddPjhOq4ZetmZ8k-41" vertex="1" connectable="0">
          <mxGeometry x="0.4267" y="3" relative="1" as="geometry">
            <mxPoint x="8" y="23" as="offset" />
          </mxGeometry>
        </mxCell>
        <mxCell id="Uv9UQddPjhOq4ZetmZ8k-43" value="&lt;h1&gt;書局&lt;/h1&gt;" style="rounded=0;whiteSpace=wrap;html=1;fillColor=#dae8fc;strokeColor=#6c8ebf;" parent="1" vertex="1">
          <mxGeometry x="550" y="180" width="120" height="60" as="geometry" />
        </mxCell>
        <mxCell id="Uv9UQddPjhOq4ZetmZ8k-44" value="&lt;h2&gt;&lt;span style=&quot;font-weight: normal;&quot;&gt;出版社&lt;/span&gt;&lt;/h2&gt;" style="ellipse;whiteSpace=wrap;html=1;" parent="1" vertex="1">
          <mxGeometry x="240" y="290" width="80" height="50" as="geometry" />
        </mxCell>
        <mxCell id="Uv9UQddPjhOq4ZetmZ8k-45" value="" style="endArrow=none;html=1;rounded=0;entryX=0;entryY=0.5;entryDx=0;entryDy=0;exitX=1;exitY=0.5;exitDx=0;exitDy=0;" parent="1" source="Uv9UQddPjhOq4ZetmZ8k-40" target="Uv9UQddPjhOq4ZetmZ8k-43" edge="1">
          <mxGeometry width="50" height="50" relative="1" as="geometry">
            <mxPoint x="460" y="190" as="sourcePoint" />
            <mxPoint x="510" y="140" as="targetPoint" />
          </mxGeometry>
        </mxCell>
        <mxCell id="Uv9UQddPjhOq4ZetmZ8k-46" value="" style="endArrow=none;html=1;rounded=0;" parent="1" source="Uv9UQddPjhOq4ZetmZ8k-44" target="Uv9UQddPjhOq4ZetmZ8k-31" edge="1">
          <mxGeometry width="50" height="50" relative="1" as="geometry">
            <mxPoint x="300" y="280" as="sourcePoint" />
            <mxPoint x="350" y="230" as="targetPoint" />
          </mxGeometry>
        </mxCell>
        <mxCell id="Uv9UQddPjhOq4ZetmZ8k-47" value="&lt;h1 style=&quot;&quot;&gt;&lt;font style=&quot;font-size: 22px;&quot;&gt;N&lt;/font&gt;&lt;/h1&gt;" style="edgeLabel;html=1;align=center;verticalAlign=bottom;resizable=0;points=[];fontSize=11;labelBackgroundColor=none;textShadow=0;fontColor=default;" parent="1" vertex="1" connectable="0">
          <mxGeometry x="480" y="230" as="geometry" />
        </mxCell>
        <mxCell id="Uv9UQddPjhOq4ZetmZ8k-48" value="&lt;h2&gt;&lt;u&gt;編號&lt;/u&gt;&lt;/h2&gt;" style="ellipse;whiteSpace=wrap;html=1;" parent="1" vertex="1">
          <mxGeometry x="480" y="60" width="80" height="50" as="geometry" />
        </mxCell>
        <mxCell id="Uv9UQddPjhOq4ZetmZ8k-49" value="&lt;h2&gt;&lt;span style=&quot;font-weight: normal;&quot;&gt;名稱&lt;/span&gt;&lt;/h2&gt;" style="ellipse;whiteSpace=wrap;html=1;fontStyle=1" parent="1" vertex="1">
          <mxGeometry x="620" y="60" width="80" height="50" as="geometry" />
        </mxCell>
        <mxCell id="Uv9UQddPjhOq4ZetmZ8k-50" value="&lt;h2&gt;&lt;span style=&quot;font-weight: normal;&quot;&gt;排名&lt;/span&gt;&lt;/h2&gt;" style="ellipse;whiteSpace=wrap;html=1;fontStyle=1" parent="1" vertex="1">
          <mxGeometry x="730" y="185" width="80" height="50" as="geometry" />
        </mxCell>
        <mxCell id="Uv9UQddPjhOq4ZetmZ8k-51" value="&lt;h2&gt;&lt;span style=&quot;font-weight: normal;&quot;&gt;座落城市&lt;/span&gt;&lt;/h2&gt;" style="ellipse;whiteSpace=wrap;html=1;fontStyle=1" parent="1" vertex="1">
          <mxGeometry x="620" y="300" width="80" height="50" as="geometry" />
        </mxCell>
        <mxCell id="Uv9UQddPjhOq4ZetmZ8k-52" value="" style="endArrow=none;html=1;rounded=0;entryX=0.163;entryY=0.017;entryDx=0;entryDy=0;entryPerimeter=0;" parent="1" source="Uv9UQddPjhOq4ZetmZ8k-48" target="Uv9UQddPjhOq4ZetmZ8k-43" edge="1">
          <mxGeometry width="50" height="50" relative="1" as="geometry">
            <mxPoint x="460" y="290" as="sourcePoint" />
            <mxPoint x="510" y="240" as="targetPoint" />
          </mxGeometry>
        </mxCell>
        <mxCell id="Uv9UQddPjhOq4ZetmZ8k-53" value="" style="endArrow=none;html=1;rounded=0;" parent="1" source="Uv9UQddPjhOq4ZetmZ8k-43" edge="1">
          <mxGeometry width="50" height="50" relative="1" as="geometry">
            <mxPoint x="460" y="290" as="sourcePoint" />
            <mxPoint x="650" y="110" as="targetPoint" />
          </mxGeometry>
        </mxCell>
        <mxCell id="Uv9UQddPjhOq4ZetmZ8k-54" value="" style="endArrow=none;html=1;rounded=0;entryX=0;entryY=0.5;entryDx=0;entryDy=0;exitX=1;exitY=0.5;exitDx=0;exitDy=0;" parent="1" source="Uv9UQddPjhOq4ZetmZ8k-43" target="Uv9UQddPjhOq4ZetmZ8k-50" edge="1">
          <mxGeometry width="50" height="50" relative="1" as="geometry">
            <mxPoint x="660" y="210" as="sourcePoint" />
            <mxPoint x="710" y="160" as="targetPoint" />
          </mxGeometry>
        </mxCell>
        <mxCell id="Uv9UQddPjhOq4ZetmZ8k-55" value="" style="endArrow=none;html=1;rounded=0;exitX=0.5;exitY=0;exitDx=0;exitDy=0;" parent="1" source="Uv9UQddPjhOq4ZetmZ8k-51" target="Uv9UQddPjhOq4ZetmZ8k-43" edge="1">
          <mxGeometry width="50" height="50" relative="1" as="geometry">
            <mxPoint x="610" y="290" as="sourcePoint" />
            <mxPoint x="660" y="240" as="targetPoint" />
          </mxGeometry>
        </mxCell>
        <mxCell id="Uv9UQddPjhOq4ZetmZ8k-56" value="&lt;h1&gt;學生&lt;/h1&gt;" style="rounded=0;whiteSpace=wrap;html=1;fillColor=#dae8fc;strokeColor=#6c8ebf;" parent="1" vertex="1">
          <mxGeometry x="140" y="395" width="120" height="60" as="geometry" />
        </mxCell>
        <mxCell id="Uv9UQddPjhOq4ZetmZ8k-57" value="&lt;h1&gt;教授&lt;/h1&gt;" style="rhombus;whiteSpace=wrap;html=1;fillColor=#fff2cc;strokeColor=#d6b656;" parent="1" vertex="1">
          <mxGeometry x="360" y="650" width="110" height="70" as="geometry" />
        </mxCell>
        <mxCell id="Uv9UQddPjhOq4ZetmZ8k-58" value="&lt;h1&gt;老師&lt;/h1&gt;" style="rounded=0;whiteSpace=wrap;html=1;fillColor=#dae8fc;strokeColor=#6c8ebf;" parent="1" vertex="1">
          <mxGeometry x="570" y="655" width="120" height="60" as="geometry" />
        </mxCell>
        <mxCell id="Uv9UQddPjhOq4ZetmZ8k-59" value="&lt;h1&gt;課程&lt;/h1&gt;" style="rounded=0;whiteSpace=wrap;html=1;fillColor=#dae8fc;strokeColor=#6c8ebf;" parent="1" vertex="1">
          <mxGeometry x="140" y="655" width="120" height="60" as="geometry" />
        </mxCell>
        <mxCell id="Uv9UQddPjhOq4ZetmZ8k-60" value="" style="endArrow=none;html=1;rounded=0;fontFamily=Helvetica;fontSize=11;fontColor=default;labelBackgroundColor=none;entryX=0;entryY=0.5;entryDx=0;entryDy=0;exitX=1;exitY=0.5;exitDx=0;exitDy=0;" parent="1" source="Uv9UQddPjhOq4ZetmZ8k-59" target="Uv9UQddPjhOq4ZetmZ8k-57" edge="1">
          <mxGeometry width="50" height="50" relative="1" as="geometry">
            <mxPoint x="210" y="715" as="sourcePoint" />
            <mxPoint x="260" y="665" as="targetPoint" />
          </mxGeometry>
        </mxCell>
        <mxCell id="Uv9UQddPjhOq4ZetmZ8k-61" value="&lt;h1&gt;N&lt;/h1&gt;" style="edgeLabel;html=1;align=center;verticalAlign=middle;resizable=0;points=[];fontFamily=Helvetica;fontSize=11;fontColor=default;labelBackgroundColor=none;fillColor=none;gradientColor=none;" parent="Uv9UQddPjhOq4ZetmZ8k-60" vertex="1" connectable="0">
          <mxGeometry x="-0.1556" relative="1" as="geometry">
            <mxPoint x="32" y="-10" as="offset" />
          </mxGeometry>
        </mxCell>
        <mxCell id="Uv9UQddPjhOq4ZetmZ8k-62" value="" style="endArrow=none;html=1;rounded=0;fontFamily=Helvetica;fontSize=11;fontColor=default;labelBackgroundColor=none;exitX=1;exitY=0.5;exitDx=0;exitDy=0;entryX=0;entryY=0.5;entryDx=0;entryDy=0;" parent="1" source="Uv9UQddPjhOq4ZetmZ8k-57" target="Uv9UQddPjhOq4ZetmZ8k-58" edge="1">
          <mxGeometry width="50" height="50" relative="1" as="geometry">
            <mxPoint x="420" y="605" as="sourcePoint" />
            <mxPoint x="470" y="555" as="targetPoint" />
          </mxGeometry>
        </mxCell>
        <mxCell id="Uv9UQddPjhOq4ZetmZ8k-63" value="&lt;h1&gt;1&lt;/h1&gt;" style="edgeLabel;html=1;align=center;verticalAlign=middle;resizable=0;points=[];fontFamily=Helvetica;fontSize=11;fontColor=default;labelBackgroundColor=none;fillColor=none;gradientColor=none;" parent="Uv9UQddPjhOq4ZetmZ8k-62" vertex="1" connectable="0">
          <mxGeometry x="-0.12" y="4" relative="1" as="geometry">
            <mxPoint x="-24" y="-6" as="offset" />
          </mxGeometry>
        </mxCell>
        <mxCell id="Uv9UQddPjhOq4ZetmZ8k-64" value="&lt;h1&gt;選修&lt;/h1&gt;" style="rhombus;whiteSpace=wrap;html=1;fillColor=#fff2cc;strokeColor=#d6b656;" parent="1" vertex="1">
          <mxGeometry x="145" y="515" width="110" height="70" as="geometry" />
        </mxCell>
        <mxCell id="Uv9UQddPjhOq4ZetmZ8k-65" value="" style="endArrow=none;html=1;rounded=0;fontFamily=Helvetica;fontSize=11;fontColor=default;labelBackgroundColor=none;entryX=0.5;entryY=1;entryDx=0;entryDy=0;exitX=0.5;exitY=0;exitDx=0;exitDy=0;" parent="1" source="Uv9UQddPjhOq4ZetmZ8k-64" target="Uv9UQddPjhOq4ZetmZ8k-56" edge="1">
          <mxGeometry width="50" height="50" relative="1" as="geometry">
            <mxPoint x="420" y="605" as="sourcePoint" />
            <mxPoint x="470" y="555" as="targetPoint" />
          </mxGeometry>
        </mxCell>
        <mxCell id="Uv9UQddPjhOq4ZetmZ8k-66" value="&lt;h1&gt;M&lt;/h1&gt;" style="edgeLabel;html=1;align=center;verticalAlign=middle;resizable=0;points=[];fontFamily=Helvetica;fontSize=11;fontColor=default;labelBackgroundColor=none;fillColor=none;gradientColor=none;" parent="Uv9UQddPjhOq4ZetmZ8k-65" vertex="1" connectable="0">
          <mxGeometry x="0.25" y="-3" relative="1" as="geometry">
            <mxPoint x="7" y="28" as="offset" />
          </mxGeometry>
        </mxCell>
        <mxCell id="Uv9UQddPjhOq4ZetmZ8k-67" value="" style="endArrow=none;html=1;rounded=0;fontFamily=Helvetica;fontSize=11;fontColor=default;labelBackgroundColor=none;entryX=0.5;entryY=1;entryDx=0;entryDy=0;exitX=0.5;exitY=0;exitDx=0;exitDy=0;" parent="1" source="Uv9UQddPjhOq4ZetmZ8k-59" target="Uv9UQddPjhOq4ZetmZ8k-64" edge="1">
          <mxGeometry width="50" height="50" relative="1" as="geometry">
            <mxPoint x="190" y="635" as="sourcePoint" />
            <mxPoint x="470" y="555" as="targetPoint" />
          </mxGeometry>
        </mxCell>
        <mxCell id="Uv9UQddPjhOq4ZetmZ8k-68" value="&lt;h1&gt;N&lt;/h1&gt;" style="edgeLabel;html=1;align=center;verticalAlign=middle;resizable=0;points=[];fontFamily=Helvetica;fontSize=11;fontColor=default;labelBackgroundColor=none;fillColor=none;gradientColor=none;" parent="Uv9UQddPjhOq4ZetmZ8k-67" vertex="1" connectable="0">
          <mxGeometry x="0.3286" y="1" relative="1" as="geometry">
            <mxPoint x="11" y="-13" as="offset" />
          </mxGeometry>
        </mxCell>
        <mxCell id="Uv9UQddPjhOq4ZetmZ8k-69" value="&lt;h1&gt;系所&lt;/h1&gt;" style="rounded=0;whiteSpace=wrap;html=1;fillColor=#dae8fc;strokeColor=#6c8ebf;" parent="1" vertex="1">
          <mxGeometry x="570" y="395" width="120" height="60" as="geometry" />
        </mxCell>
        <mxCell id="Uv9UQddPjhOq4ZetmZ8k-70" value="&lt;h1&gt;包含&lt;/h1&gt;" style="rhombus;whiteSpace=wrap;html=1;fillColor=#fff2cc;strokeColor=#d6b656;" parent="1" vertex="1">
          <mxGeometry x="360" y="390" width="110" height="70" as="geometry" />
        </mxCell>
        <mxCell id="Uv9UQddPjhOq4ZetmZ8k-71" value="&lt;h1&gt;包含&lt;/h1&gt;" style="rhombus;whiteSpace=wrap;html=1;fillColor=#fff2cc;strokeColor=#d6b656;" parent="1" vertex="1">
          <mxGeometry x="575" y="525" width="110" height="70" as="geometry" />
        </mxCell>
        <mxCell id="Uv9UQddPjhOq4ZetmZ8k-72" value="" style="endArrow=none;html=1;rounded=0;fontFamily=Helvetica;fontSize=11;fontColor=default;labelBackgroundColor=none;entryX=0.5;entryY=1;entryDx=0;entryDy=0;exitX=0.5;exitY=0;exitDx=0;exitDy=0;" parent="1" source="Uv9UQddPjhOq4ZetmZ8k-58" target="Uv9UQddPjhOq4ZetmZ8k-71" edge="1">
          <mxGeometry relative="1" as="geometry">
            <mxPoint x="460" y="585" as="sourcePoint" />
            <mxPoint x="520" y="575" as="targetPoint" />
          </mxGeometry>
        </mxCell>
        <mxCell id="Uv9UQddPjhOq4ZetmZ8k-73" value="&lt;h1&gt;N&lt;/h1&gt;" style="resizable=0;html=1;whiteSpace=wrap;align=right;verticalAlign=bottom;fontFamily=Helvetica;fontSize=11;fontColor=default;labelBackgroundColor=none;fillColor=none;gradientColor=none;" parent="Uv9UQddPjhOq4ZetmZ8k-72" connectable="0" vertex="1">
          <mxGeometry x="1" relative="1" as="geometry">
            <mxPoint x="20" y="40" as="offset" />
          </mxGeometry>
        </mxCell>
        <mxCell id="Uv9UQddPjhOq4ZetmZ8k-74" value="" style="endArrow=none;html=1;rounded=0;fontFamily=Helvetica;fontSize=11;fontColor=default;labelBackgroundColor=none;exitX=0.5;exitY=1;exitDx=0;exitDy=0;entryX=0.5;entryY=0;entryDx=0;entryDy=0;" parent="1" source="Uv9UQddPjhOq4ZetmZ8k-69" target="Uv9UQddPjhOq4ZetmZ8k-71" edge="1">
          <mxGeometry relative="1" as="geometry">
            <mxPoint x="360" y="475" as="sourcePoint" />
            <mxPoint x="520" y="475" as="targetPoint" />
          </mxGeometry>
        </mxCell>
        <mxCell id="Uv9UQddPjhOq4ZetmZ8k-75" value="&lt;h1&gt;1&lt;/h1&gt;" style="resizable=0;html=1;whiteSpace=wrap;align=right;verticalAlign=bottom;fontFamily=Helvetica;fontSize=11;fontColor=default;labelBackgroundColor=none;fillColor=none;gradientColor=none;" parent="Uv9UQddPjhOq4ZetmZ8k-74" connectable="0" vertex="1">
          <mxGeometry relative="1" as="geometry">
            <mxPoint x="20" y="55" as="offset" />
          </mxGeometry>
        </mxCell>
        <mxCell id="Uv9UQddPjhOq4ZetmZ8k-76" value="" style="endArrow=none;html=1;rounded=0;fontFamily=Helvetica;fontSize=11;fontColor=default;labelBackgroundColor=none;entryX=1;entryY=0.5;entryDx=0;entryDy=0;exitX=0;exitY=0.5;exitDx=0;exitDy=0;" parent="1" source="Uv9UQddPjhOq4ZetmZ8k-69" target="Uv9UQddPjhOq4ZetmZ8k-70" edge="1">
          <mxGeometry relative="1" as="geometry">
            <mxPoint x="360" y="475" as="sourcePoint" />
            <mxPoint x="520" y="475" as="targetPoint" />
          </mxGeometry>
        </mxCell>
        <mxCell id="Uv9UQddPjhOq4ZetmZ8k-77" value="&lt;h1&gt;1&lt;/h1&gt;" style="resizable=0;html=1;whiteSpace=wrap;align=right;verticalAlign=bottom;fontFamily=Helvetica;fontSize=11;fontColor=default;labelBackgroundColor=none;fillColor=none;gradientColor=none;" parent="Uv9UQddPjhOq4ZetmZ8k-76" connectable="0" vertex="1">
          <mxGeometry x="1" relative="1" as="geometry">
            <mxPoint x="20" y="20" as="offset" />
          </mxGeometry>
        </mxCell>
        <mxCell id="Uv9UQddPjhOq4ZetmZ8k-78" value="" style="endArrow=none;html=1;rounded=0;fontFamily=Helvetica;fontSize=11;fontColor=default;labelBackgroundColor=none;exitX=1;exitY=0.5;exitDx=0;exitDy=0;entryX=0;entryY=0.5;entryDx=0;entryDy=0;" parent="1" source="Uv9UQddPjhOq4ZetmZ8k-56" target="Uv9UQddPjhOq4ZetmZ8k-70" edge="1">
          <mxGeometry relative="1" as="geometry">
            <mxPoint x="255" y="424.5" as="sourcePoint" />
            <mxPoint x="340" y="425" as="targetPoint" />
          </mxGeometry>
        </mxCell>
        <mxCell id="Uv9UQddPjhOq4ZetmZ8k-79" value="&lt;h1&gt;N&lt;/h1&gt;" style="resizable=0;html=1;whiteSpace=wrap;align=right;verticalAlign=bottom;fontFamily=Helvetica;fontSize=11;fontColor=default;labelBackgroundColor=none;fillColor=none;gradientColor=none;" parent="Uv9UQddPjhOq4ZetmZ8k-78" connectable="0" vertex="1">
          <mxGeometry x="1" relative="1" as="geometry">
            <mxPoint x="-10" y="20" as="offset" />
          </mxGeometry>
        </mxCell>
        <mxCell id="Uv9UQddPjhOq4ZetmZ8k-80" value="&lt;h1&gt;客戶&lt;/h1&gt;" style="rounded=0;whiteSpace=wrap;html=1;fillColor=#dae8fc;strokeColor=#6c8ebf;" parent="1" vertex="1">
          <mxGeometry x="980" y="145" width="120" height="60" as="geometry" />
        </mxCell>
        <mxCell id="Uv9UQddPjhOq4ZetmZ8k-81" value="&lt;h1&gt;組成&lt;/h1&gt;" style="rhombus;whiteSpace=wrap;html=1;fillColor=#fff2cc;strokeColor=#d6b656;" parent="1" vertex="1">
          <mxGeometry x="1200" y="400" width="110" height="70" as="geometry" />
        </mxCell>
        <mxCell id="Uv9UQddPjhOq4ZetmZ8k-82" value="&lt;h1&gt;產品&lt;/h1&gt;" style="rounded=0;whiteSpace=wrap;html=1;fillColor=#dae8fc;strokeColor=#6c8ebf;" parent="1" vertex="1">
          <mxGeometry x="1410" y="405" width="120" height="60" as="geometry" />
        </mxCell>
        <mxCell id="Uv9UQddPjhOq4ZetmZ8k-83" value="&lt;h1&gt;項目&lt;/h1&gt;" style="rounded=0;whiteSpace=wrap;html=1;fillColor=#dae8fc;strokeColor=#6c8ebf;" parent="1" vertex="1">
          <mxGeometry x="980" y="405" width="120" height="60" as="geometry" />
        </mxCell>
        <mxCell id="Uv9UQddPjhOq4ZetmZ8k-84" value="" style="endArrow=none;html=1;rounded=0;fontFamily=Helvetica;fontSize=11;fontColor=default;labelBackgroundColor=none;entryX=0;entryY=0.5;entryDx=0;entryDy=0;exitX=1;exitY=0.5;exitDx=0;exitDy=0;" parent="1" source="Uv9UQddPjhOq4ZetmZ8k-83" target="Uv9UQddPjhOq4ZetmZ8k-81" edge="1">
          <mxGeometry width="50" height="50" relative="1" as="geometry">
            <mxPoint x="1050" y="465" as="sourcePoint" />
            <mxPoint x="1100" y="415" as="targetPoint" />
          </mxGeometry>
        </mxCell>
        <mxCell id="Uv9UQddPjhOq4ZetmZ8k-85" value="&lt;h1&gt;M&lt;/h1&gt;" style="edgeLabel;html=1;align=center;verticalAlign=middle;resizable=0;points=[];fontFamily=Helvetica;fontSize=11;fontColor=default;labelBackgroundColor=none;fillColor=none;gradientColor=none;" parent="Uv9UQddPjhOq4ZetmZ8k-84" vertex="1" connectable="0">
          <mxGeometry x="-0.1556" relative="1" as="geometry">
            <mxPoint x="32" y="-10" as="offset" />
          </mxGeometry>
        </mxCell>
        <mxCell id="Uv9UQddPjhOq4ZetmZ8k-86" value="" style="endArrow=none;html=1;rounded=0;fontFamily=Helvetica;fontSize=11;fontColor=default;labelBackgroundColor=none;exitX=1;exitY=0.5;exitDx=0;exitDy=0;entryX=0;entryY=0.5;entryDx=0;entryDy=0;" parent="1" source="Uv9UQddPjhOq4ZetmZ8k-81" target="Uv9UQddPjhOq4ZetmZ8k-82" edge="1">
          <mxGeometry width="50" height="50" relative="1" as="geometry">
            <mxPoint x="1260" y="355" as="sourcePoint" />
            <mxPoint x="1310" y="305" as="targetPoint" />
          </mxGeometry>
        </mxCell>
        <mxCell id="Uv9UQddPjhOq4ZetmZ8k-87" value="&lt;h1&gt;N&lt;/h1&gt;" style="edgeLabel;html=1;align=center;verticalAlign=middle;resizable=0;points=[];fontFamily=Helvetica;fontSize=11;fontColor=default;labelBackgroundColor=none;fillColor=none;gradientColor=none;" parent="Uv9UQddPjhOq4ZetmZ8k-86" vertex="1" connectable="0">
          <mxGeometry x="-0.12" y="4" relative="1" as="geometry">
            <mxPoint x="-24" y="-6" as="offset" />
          </mxGeometry>
        </mxCell>
        <mxCell id="Uv9UQddPjhOq4ZetmZ8k-88" value="&lt;h1&gt;包含&lt;/h1&gt;" style="rhombus;whiteSpace=wrap;html=1;fillColor=#fff2cc;strokeColor=#d6b656;" parent="1" vertex="1">
          <mxGeometry x="980" y="570" width="120" height="70" as="geometry" />
        </mxCell>
        <mxCell id="Uv9UQddPjhOq4ZetmZ8k-89" value="&lt;h1&gt;訂單&lt;/h1&gt;" style="rounded=0;whiteSpace=wrap;html=1;fillColor=#dae8fc;strokeColor=#6c8ebf;" parent="1" vertex="1">
          <mxGeometry x="1410" y="145" width="120" height="60" as="geometry" />
        </mxCell>
        <mxCell id="Uv9UQddPjhOq4ZetmZ8k-90" value="&lt;h1&gt;訂購&lt;/h1&gt;" style="rhombus;whiteSpace=wrap;html=1;fillColor=#fff2cc;strokeColor=#d6b656;" parent="1" vertex="1">
          <mxGeometry x="1200" y="140" width="110" height="70" as="geometry" />
        </mxCell>
        <mxCell id="Uv9UQddPjhOq4ZetmZ8k-91" value="&lt;h1&gt;包含&lt;/h1&gt;" style="rhombus;whiteSpace=wrap;html=1;fillColor=#fff2cc;strokeColor=#d6b656;" parent="1" vertex="1">
          <mxGeometry x="1410" y="275" width="120" height="70" as="geometry" />
        </mxCell>
        <mxCell id="Uv9UQddPjhOq4ZetmZ8k-92" value="" style="endArrow=none;html=1;rounded=0;fontFamily=Helvetica;fontSize=11;fontColor=default;labelBackgroundColor=none;entryX=0.5;entryY=1;entryDx=0;entryDy=0;exitX=0.5;exitY=0;exitDx=0;exitDy=0;" parent="1" source="Uv9UQddPjhOq4ZetmZ8k-82" target="Uv9UQddPjhOq4ZetmZ8k-91" edge="1">
          <mxGeometry relative="1" as="geometry">
            <mxPoint x="1300" y="335" as="sourcePoint" />
            <mxPoint x="1360" y="325" as="targetPoint" />
          </mxGeometry>
        </mxCell>
        <mxCell id="Uv9UQddPjhOq4ZetmZ8k-93" value="&lt;h1&gt;N&lt;/h1&gt;" style="resizable=0;html=1;whiteSpace=wrap;align=right;verticalAlign=bottom;fontFamily=Helvetica;fontSize=11;fontColor=default;labelBackgroundColor=none;fillColor=none;gradientColor=none;" parent="Uv9UQddPjhOq4ZetmZ8k-92" connectable="0" vertex="1">
          <mxGeometry x="1" relative="1" as="geometry">
            <mxPoint x="20" y="40" as="offset" />
          </mxGeometry>
        </mxCell>
        <mxCell id="Uv9UQddPjhOq4ZetmZ8k-94" value="" style="endArrow=none;html=1;rounded=0;fontFamily=Helvetica;fontSize=11;fontColor=default;labelBackgroundColor=none;exitX=0.5;exitY=1;exitDx=0;exitDy=0;entryX=0.5;entryY=0;entryDx=0;entryDy=0;" parent="1" source="Uv9UQddPjhOq4ZetmZ8k-89" target="Uv9UQddPjhOq4ZetmZ8k-91" edge="1">
          <mxGeometry relative="1" as="geometry">
            <mxPoint x="1200" y="225" as="sourcePoint" />
            <mxPoint x="1360" y="225" as="targetPoint" />
          </mxGeometry>
        </mxCell>
        <mxCell id="Uv9UQddPjhOq4ZetmZ8k-95" value="&lt;h1&gt;M&lt;/h1&gt;" style="resizable=0;html=1;whiteSpace=wrap;align=right;verticalAlign=bottom;fontFamily=Helvetica;fontSize=11;fontColor=default;labelBackgroundColor=none;fillColor=none;gradientColor=none;" parent="Uv9UQddPjhOq4ZetmZ8k-94" connectable="0" vertex="1">
          <mxGeometry relative="1" as="geometry">
            <mxPoint x="20" y="55" as="offset" />
          </mxGeometry>
        </mxCell>
        <mxCell id="Uv9UQddPjhOq4ZetmZ8k-96" value="" style="endArrow=none;html=1;rounded=0;fontFamily=Helvetica;fontSize=11;fontColor=default;labelBackgroundColor=none;entryX=1;entryY=0.5;entryDx=0;entryDy=0;exitX=0;exitY=0.5;exitDx=0;exitDy=0;" parent="1" source="Uv9UQddPjhOq4ZetmZ8k-89" target="Uv9UQddPjhOq4ZetmZ8k-90" edge="1">
          <mxGeometry relative="1" as="geometry">
            <mxPoint x="1200" y="225" as="sourcePoint" />
            <mxPoint x="1360" y="225" as="targetPoint" />
          </mxGeometry>
        </mxCell>
        <mxCell id="Uv9UQddPjhOq4ZetmZ8k-97" value="&lt;h1&gt;N&lt;/h1&gt;" style="resizable=0;html=1;whiteSpace=wrap;align=right;verticalAlign=bottom;fontFamily=Helvetica;fontSize=11;fontColor=default;labelBackgroundColor=none;fillColor=none;gradientColor=none;" parent="Uv9UQddPjhOq4ZetmZ8k-96" connectable="0" vertex="1">
          <mxGeometry x="1" relative="1" as="geometry">
            <mxPoint x="20" y="20" as="offset" />
          </mxGeometry>
        </mxCell>
        <mxCell id="Uv9UQddPjhOq4ZetmZ8k-98" value="" style="endArrow=none;html=1;rounded=0;fontFamily=Helvetica;fontSize=11;fontColor=default;labelBackgroundColor=none;exitX=1;exitY=0.5;exitDx=0;exitDy=0;entryX=0;entryY=0.5;entryDx=0;entryDy=0;" parent="1" source="Uv9UQddPjhOq4ZetmZ8k-80" target="Uv9UQddPjhOq4ZetmZ8k-90" edge="1">
          <mxGeometry relative="1" as="geometry">
            <mxPoint x="1095" y="174.5" as="sourcePoint" />
            <mxPoint x="1180" y="175" as="targetPoint" />
          </mxGeometry>
        </mxCell>
        <mxCell id="Uv9UQddPjhOq4ZetmZ8k-99" value="&lt;h1&gt;1&lt;/h1&gt;" style="resizable=0;html=1;whiteSpace=wrap;align=right;verticalAlign=bottom;fontFamily=Helvetica;fontSize=11;fontColor=default;labelBackgroundColor=none;fillColor=none;gradientColor=none;" parent="Uv9UQddPjhOq4ZetmZ8k-98" connectable="0" vertex="1">
          <mxGeometry x="1" relative="1" as="geometry">
            <mxPoint x="-10" y="20" as="offset" />
          </mxGeometry>
        </mxCell>
        <mxCell id="Uv9UQddPjhOq4ZetmZ8k-100" value="&lt;h1&gt;出貨單&lt;/h1&gt;" style="rounded=0;whiteSpace=wrap;html=1;fillColor=#dae8fc;strokeColor=#6c8ebf;" parent="1" vertex="1">
          <mxGeometry x="980" y="740" width="120" height="60" as="geometry" />
        </mxCell>
        <mxCell id="Uv9UQddPjhOq4ZetmZ8k-101" value="" style="endArrow=none;html=1;rounded=0;exitX=0.5;exitY=0;exitDx=0;exitDy=0;entryX=0.5;entryY=1;entryDx=0;entryDy=0;" parent="1" source="Uv9UQddPjhOq4ZetmZ8k-100" target="Uv9UQddPjhOq4ZetmZ8k-88" edge="1">
          <mxGeometry relative="1" as="geometry">
            <mxPoint x="1270" y="810" as="sourcePoint" />
            <mxPoint x="1430" y="810" as="targetPoint" />
          </mxGeometry>
        </mxCell>
        <mxCell id="Uv9UQddPjhOq4ZetmZ8k-102" value="&lt;h1&gt;&lt;font style=&quot;font-size: 22px;&quot;&gt;M&lt;/font&gt;&lt;/h1&gt;" style="resizable=0;html=1;whiteSpace=wrap;align=right;verticalAlign=bottom;" parent="Uv9UQddPjhOq4ZetmZ8k-101" connectable="0" vertex="1">
          <mxGeometry x="1" relative="1" as="geometry">
            <mxPoint x="30" y="50" as="offset" />
          </mxGeometry>
        </mxCell>
        <mxCell id="Uv9UQddPjhOq4ZetmZ8k-103" value="" style="endArrow=none;html=1;rounded=0;exitX=0.5;exitY=1;exitDx=0;exitDy=0;entryX=0.5;entryY=0;entryDx=0;entryDy=0;" parent="1" source="Uv9UQddPjhOq4ZetmZ8k-83" target="Uv9UQddPjhOq4ZetmZ8k-88" edge="1">
          <mxGeometry relative="1" as="geometry">
            <mxPoint x="1270" y="810" as="sourcePoint" />
            <mxPoint x="1430" y="810" as="targetPoint" />
          </mxGeometry>
        </mxCell>
        <mxCell id="Uv9UQddPjhOq4ZetmZ8k-104" value="&lt;h1&gt;&lt;font style=&quot;font-size: 22px;&quot;&gt;N&lt;/font&gt;&lt;/h1&gt;" style="resizable=0;html=1;whiteSpace=wrap;align=right;verticalAlign=bottom;" parent="Uv9UQddPjhOq4ZetmZ8k-103" connectable="0" vertex="1">
          <mxGeometry x="1" relative="1" as="geometry">
            <mxPoint x="30" y="9" as="offset" />
          </mxGeometry>
        </mxCell>
        <mxCell id="Uv9UQddPjhOq4ZetmZ8k-105" value="&lt;h1&gt;供應商&lt;/h1&gt;" style="rounded=0;whiteSpace=wrap;html=1;fillColor=#dae8fc;strokeColor=#6c8ebf;" parent="1" vertex="1">
          <mxGeometry x="1410" y="740" width="120" height="60" as="geometry" />
        </mxCell>
        <mxCell id="Uv9UQddPjhOq4ZetmZ8k-106" value="&lt;h1&gt;出貨&lt;/h1&gt;" style="rhombus;whiteSpace=wrap;html=1;fillColor=#fff2cc;strokeColor=#d6b656;" parent="1" vertex="1">
          <mxGeometry x="1200" y="740" width="110" height="60" as="geometry" />
        </mxCell>
        <mxCell id="Uv9UQddPjhOq4ZetmZ8k-107" value="" style="endArrow=none;html=1;rounded=0;entryX=1;entryY=0.5;entryDx=0;entryDy=0;exitX=0;exitY=0.5;exitDx=0;exitDy=0;" parent="1" source="Uv9UQddPjhOq4ZetmZ8k-105" target="Uv9UQddPjhOq4ZetmZ8k-106" edge="1">
          <mxGeometry relative="1" as="geometry">
            <mxPoint x="1270" y="670" as="sourcePoint" />
            <mxPoint x="1430" y="670" as="targetPoint" />
          </mxGeometry>
        </mxCell>
        <mxCell id="Uv9UQddPjhOq4ZetmZ8k-108" value="&lt;h1&gt;&lt;font style=&quot;font-size: 22px;&quot;&gt;1&lt;/font&gt;&lt;/h1&gt;" style="resizable=0;html=1;whiteSpace=wrap;align=right;verticalAlign=bottom;" parent="Uv9UQddPjhOq4ZetmZ8k-107" connectable="0" vertex="1">
          <mxGeometry x="1" relative="1" as="geometry">
            <mxPoint x="20" y="20" as="offset" />
          </mxGeometry>
        </mxCell>
        <mxCell id="Uv9UQddPjhOq4ZetmZ8k-109" value="" style="endArrow=none;html=1;rounded=0;exitX=1;exitY=0.5;exitDx=0;exitDy=0;entryX=0;entryY=0.5;entryDx=0;entryDy=0;" parent="1" source="Uv9UQddPjhOq4ZetmZ8k-100" target="Uv9UQddPjhOq4ZetmZ8k-106" edge="1">
          <mxGeometry relative="1" as="geometry">
            <mxPoint x="1270" y="670" as="sourcePoint" />
            <mxPoint x="1430" y="670" as="targetPoint" />
          </mxGeometry>
        </mxCell>
        <mxCell id="Uv9UQddPjhOq4ZetmZ8k-110" value="&lt;h1&gt;&lt;font style=&quot;font-size: 22px;&quot;&gt;N&lt;/font&gt;&lt;/h1&gt;" style="resizable=0;html=1;whiteSpace=wrap;align=right;verticalAlign=bottom;" parent="Uv9UQddPjhOq4ZetmZ8k-109" connectable="0" vertex="1">
          <mxGeometry x="1" relative="1" as="geometry">
            <mxPoint x="-10" y="20" as="offset" />
          </mxGeometry>
        </mxCell>
        <mxCell id="Uv9UQddPjhOq4ZetmZ8k-111" value="&lt;h1&gt;供應&lt;/h1&gt;" style="rhombus;whiteSpace=wrap;html=1;fillColor=#fff2cc;strokeColor=#d6b656;" parent="1" vertex="1">
          <mxGeometry x="1200" y="570" width="120" height="70" as="geometry" />
        </mxCell>
        <mxCell id="Uv9UQddPjhOq4ZetmZ8k-112" value="" style="endArrow=none;html=1;rounded=0;exitX=1;exitY=1;exitDx=0;exitDy=0;entryX=0;entryY=0;entryDx=0;entryDy=0;" parent="1" source="Uv9UQddPjhOq4ZetmZ8k-83" target="Uv9UQddPjhOq4ZetmZ8k-111" edge="1">
          <mxGeometry relative="1" as="geometry">
            <mxPoint x="1050" y="475" as="sourcePoint" />
            <mxPoint x="1050" y="580" as="targetPoint" />
          </mxGeometry>
        </mxCell>
        <mxCell id="Uv9UQddPjhOq4ZetmZ8k-113" value="&lt;h1&gt;&lt;font style=&quot;font-size: 22px;&quot;&gt;N&lt;/font&gt;&lt;/h1&gt;" style="resizable=0;html=1;whiteSpace=wrap;align=right;verticalAlign=bottom;" parent="Uv9UQddPjhOq4ZetmZ8k-112" connectable="0" vertex="1">
          <mxGeometry x="1" relative="1" as="geometry">
            <mxPoint x="10" y="9" as="offset" />
          </mxGeometry>
        </mxCell>
        <mxCell id="Uv9UQddPjhOq4ZetmZ8k-114" value="" style="endArrow=none;html=1;rounded=0;exitX=0;exitY=0;exitDx=0;exitDy=0;entryX=0.7;entryY=0.786;entryDx=0;entryDy=0;entryPerimeter=0;" parent="1" source="Uv9UQddPjhOq4ZetmZ8k-105" target="Uv9UQddPjhOq4ZetmZ8k-111" edge="1">
          <mxGeometry relative="1" as="geometry">
            <mxPoint x="1050" y="750" as="sourcePoint" />
            <mxPoint x="1280" y="620" as="targetPoint" />
          </mxGeometry>
        </mxCell>
        <mxCell id="Uv9UQddPjhOq4ZetmZ8k-115" value="&lt;h1&gt;&lt;font style=&quot;font-size: 22px;&quot;&gt;M&lt;/font&gt;&lt;/h1&gt;" style="resizable=0;html=1;whiteSpace=wrap;align=right;verticalAlign=bottom;" parent="Uv9UQddPjhOq4ZetmZ8k-114" connectable="0" vertex="1">
          <mxGeometry x="1" relative="1" as="geometry">
            <mxPoint x="40" y="38" as="offset" />
          </mxGeometry>
        </mxCell>
        <mxCell id="Uv9UQddPjhOq4ZetmZ8k-116" value="" style="line;strokeWidth=2;html=1;" parent="1" vertex="1">
          <mxGeometry x="50" y="365" width="760" height="10" as="geometry" />
        </mxCell>
        <mxCell id="Uv9UQddPjhOq4ZetmZ8k-117" value="" style="line;strokeWidth=2;html=1;" parent="1" vertex="1">
          <mxGeometry x="50" y="740" width="760" height="10" as="geometry" />
        </mxCell>
        <mxCell id="Uv9UQddPjhOq4ZetmZ8k-118" value="&lt;h2&gt;Employee&lt;/h2&gt;" style="rounded=0;whiteSpace=wrap;html=1;fillColor=#dae8fc;strokeColor=#6c8ebf;" parent="1" vertex="1">
          <mxGeometry x="2685" y="470" width="120" height="60" as="geometry" />
        </mxCell>
        <mxCell id="Uv9UQddPjhOq4ZetmZ8k-119" value="&lt;h2&gt;Contains&lt;/h2&gt;" style="rhombus;whiteSpace=wrap;html=1;fillColor=#fff2cc;strokeColor=#d6b656;" parent="1" vertex="1">
          <mxGeometry x="2900" y="500" width="116" height="70" as="geometry" />
        </mxCell>
        <mxCell id="Uv9UQddPjhOq4ZetmZ8k-120" value="&lt;h2&gt;Department&lt;/h2&gt;" style="rounded=0;whiteSpace=wrap;html=1;fillColor=#dae8fc;strokeColor=#6c8ebf;" parent="1" vertex="1">
          <mxGeometry x="3115" y="470" width="120" height="60" as="geometry" />
        </mxCell>
        <mxCell id="Uv9UQddPjhOq4ZetmZ8k-121" value="" style="endArrow=none;html=1;rounded=0;entryX=1;entryY=0.5;entryDx=0;entryDy=0;exitX=0;exitY=0.5;exitDx=0;exitDy=0;" parent="1" source="Uv9UQddPjhOq4ZetmZ8k-120" target="Uv9UQddPjhOq4ZetmZ8k-119" edge="1">
          <mxGeometry relative="1" as="geometry">
            <mxPoint x="2905" y="700" as="sourcePoint" />
            <mxPoint x="3065" y="700" as="targetPoint" />
          </mxGeometry>
        </mxCell>
        <mxCell id="Uv9UQddPjhOq4ZetmZ8k-122" value="&lt;h2&gt;1&lt;/h2&gt;" style="resizable=0;html=1;whiteSpace=wrap;align=right;verticalAlign=bottom;" parent="Uv9UQddPjhOq4ZetmZ8k-121" connectable="0" vertex="1">
          <mxGeometry x="1" relative="1" as="geometry">
            <mxPoint x="20" y="15" as="offset" />
          </mxGeometry>
        </mxCell>
        <mxCell id="Uv9UQddPjhOq4ZetmZ8k-123" value="" style="endArrow=none;html=1;rounded=0;exitX=1;exitY=0.5;exitDx=0;exitDy=0;entryX=0;entryY=0.5;entryDx=0;entryDy=0;" parent="1" source="Uv9UQddPjhOq4ZetmZ8k-118" target="Uv9UQddPjhOq4ZetmZ8k-119" edge="1">
          <mxGeometry relative="1" as="geometry">
            <mxPoint x="2905" y="700" as="sourcePoint" />
            <mxPoint x="3065" y="700" as="targetPoint" />
          </mxGeometry>
        </mxCell>
        <mxCell id="Uv9UQddPjhOq4ZetmZ8k-124" value="&lt;h3&gt;&lt;font style=&quot;font-size: 18px;&quot;&gt;N&lt;/font&gt;&lt;/h3&gt;" style="resizable=0;html=1;whiteSpace=wrap;align=right;verticalAlign=bottom;" parent="Uv9UQddPjhOq4ZetmZ8k-123" connectable="0" vertex="1">
          <mxGeometry x="1" relative="1" as="geometry">
            <mxPoint x="-10" y="15" as="offset" />
          </mxGeometry>
        </mxCell>
        <mxCell id="Uv9UQddPjhOq4ZetmZ8k-125" value="&lt;h3&gt;&lt;span style=&quot;font-weight: normal;&quot;&gt;name&lt;/span&gt;&lt;/h3&gt;" style="ellipse;whiteSpace=wrap;html=1;align=center;" parent="1" vertex="1">
          <mxGeometry x="2889" y="250" width="110" height="50" as="geometry" />
        </mxCell>
        <mxCell id="Uv9UQddPjhOq4ZetmZ8k-126" value="&lt;h2&gt;Manage&lt;/h2&gt;" style="shape=rhombus;perimeter=rhombusPerimeter;whiteSpace=wrap;html=1;align=center;fillColor=#fff2cc;strokeColor=#d6b656;" parent="1" vertex="1">
          <mxGeometry x="2505" y="370" width="120" height="60" as="geometry" />
        </mxCell>
        <mxCell id="Uv9UQddPjhOq4ZetmZ8k-127" value="&lt;h3&gt;&lt;span style=&quot;font-weight: normal;&quot;&gt;dependents&lt;/span&gt;&lt;/h3&gt;" style="ellipse;shape=doubleEllipse;margin=3;whiteSpace=wrap;html=1;align=center;" parent="1" vertex="1">
          <mxGeometry x="2725" y="345" width="100" height="40" as="geometry" />
        </mxCell>
        <mxCell id="Uv9UQddPjhOq4ZetmZ8k-128" value="" style="endArrow=none;html=1;rounded=0;entryX=1;entryY=0;entryDx=0;entryDy=0;exitX=0;exitY=1;exitDx=0;exitDy=0;" parent="1" source="Uv9UQddPjhOq4ZetmZ8k-125" target="Uv9UQddPjhOq4ZetmZ8k-127" edge="1">
          <mxGeometry relative="1" as="geometry">
            <mxPoint x="2695" y="690" as="sourcePoint" />
            <mxPoint x="2638" y="620" as="targetPoint" />
          </mxGeometry>
        </mxCell>
        <mxCell id="Uv9UQddPjhOq4ZetmZ8k-129" value="&lt;h3&gt;&lt;span style=&quot;font-weight: normal;&quot;&gt;gender&lt;/span&gt;&lt;/h3&gt;" style="ellipse;whiteSpace=wrap;html=1;align=center;" parent="1" vertex="1">
          <mxGeometry x="2765" y="220" width="110" height="50" as="geometry" />
        </mxCell>
        <mxCell id="Uv9UQddPjhOq4ZetmZ8k-130" value="" style="endArrow=none;html=1;rounded=0;entryX=0.5;entryY=1;entryDx=0;entryDy=0;exitX=0.627;exitY=0.002;exitDx=0;exitDy=0;exitPerimeter=0;" parent="1" source="Uv9UQddPjhOq4ZetmZ8k-127" target="Uv9UQddPjhOq4ZetmZ8k-129" edge="1">
          <mxGeometry relative="1" as="geometry">
            <mxPoint x="2585" y="510" as="sourcePoint" />
            <mxPoint x="2975" y="800" as="targetPoint" />
          </mxGeometry>
        </mxCell>
        <mxCell id="Uv9UQddPjhOq4ZetmZ8k-131" value="&lt;h3&gt;&lt;span style=&quot;font-weight: normal;&quot;&gt;brithdate&lt;/span&gt;&lt;/h3&gt;" style="ellipse;whiteSpace=wrap;html=1;align=center;" parent="1" vertex="1">
          <mxGeometry x="2545" y="230" width="110" height="50" as="geometry" />
        </mxCell>
        <mxCell id="Uv9UQddPjhOq4ZetmZ8k-132" value="" style="endArrow=none;html=1;rounded=0;entryX=0.5;entryY=1;entryDx=0;entryDy=0;exitX=0.06;exitY=0.25;exitDx=0;exitDy=0;exitPerimeter=0;" parent="1" source="Uv9UQddPjhOq4ZetmZ8k-127" target="Uv9UQddPjhOq4ZetmZ8k-131" edge="1">
          <mxGeometry relative="1" as="geometry">
            <mxPoint x="2805" y="340" as="sourcePoint" />
            <mxPoint x="3065" y="740" as="targetPoint" />
          </mxGeometry>
        </mxCell>
        <mxCell id="Uv9UQddPjhOq4ZetmZ8k-133" value="&lt;h3&gt;&lt;span style=&quot;font-weight: normal;&quot;&gt;relationship&lt;/span&gt;&lt;/h3&gt;" style="ellipse;whiteSpace=wrap;html=1;align=center;fontStyle=1" parent="1" vertex="1">
          <mxGeometry x="2655" y="200" width="110" height="50" as="geometry" />
        </mxCell>
        <mxCell id="Uv9UQddPjhOq4ZetmZ8k-134" value="" style="endArrow=none;html=1;rounded=0;exitX=0.396;exitY=1.006;exitDx=0;exitDy=0;exitPerimeter=0;entryX=0.293;entryY=0.053;entryDx=0;entryDy=0;entryPerimeter=0;" parent="1" source="Uv9UQddPjhOq4ZetmZ8k-133" target="Uv9UQddPjhOq4ZetmZ8k-127" edge="1">
          <mxGeometry relative="1" as="geometry">
            <mxPoint x="2665" y="230" as="sourcePoint" />
            <mxPoint x="2755" y="340" as="targetPoint" />
            <Array as="points" />
          </mxGeometry>
        </mxCell>
        <mxCell id="Uv9UQddPjhOq4ZetmZ8k-135" value="&lt;h3&gt;&lt;span style=&quot;font-weight: normal;&quot;&gt;name&lt;/span&gt;&lt;/h3&gt;" style="ellipse;whiteSpace=wrap;html=1;align=center;" parent="1" vertex="1">
          <mxGeometry x="2669" y="750" width="110" height="50" as="geometry" />
        </mxCell>
        <mxCell id="Uv9UQddPjhOq4ZetmZ8k-136" value="&lt;h3&gt;&lt;u&gt;employee_id&lt;/u&gt;&lt;/h3&gt;" style="ellipse;whiteSpace=wrap;html=1;" parent="1" vertex="1">
          <mxGeometry x="2745" y="700" width="120" height="50" as="geometry" />
        </mxCell>
        <mxCell id="Uv9UQddPjhOq4ZetmZ8k-137" value="&lt;h3&gt;&lt;span style=&quot;font-weight: normal;&quot;&gt;social_&lt;br&gt;security_id&lt;/span&gt;&lt;/h3&gt;" style="ellipse;whiteSpace=wrap;html=1;align=center;" parent="1" vertex="1">
          <mxGeometry x="2559" y="730" width="110" height="50" as="geometry" />
        </mxCell>
        <mxCell id="Uv9UQddPjhOq4ZetmZ8k-138" value="&lt;h3&gt;&lt;span style=&quot;font-weight: normal;&quot;&gt;gender&lt;/span&gt;&lt;/h3&gt;" style="ellipse;whiteSpace=wrap;html=1;align=center;" parent="1" vertex="1">
          <mxGeometry x="2500" y="660" width="110" height="50" as="geometry" />
        </mxCell>
        <mxCell id="Uv9UQddPjhOq4ZetmZ8k-139" value="&lt;h3&gt;&lt;span style=&quot;font-weight: normal;&quot;&gt;birthdate&lt;/span&gt;&lt;/h3&gt;" style="ellipse;whiteSpace=wrap;html=1;align=center;" parent="1" vertex="1">
          <mxGeometry x="2495" y="580" width="110" height="50" as="geometry" />
        </mxCell>
        <mxCell id="Uv9UQddPjhOq4ZetmZ8k-140" value="" style="endArrow=none;html=1;rounded=0;entryX=1;entryY=0;entryDx=0;entryDy=0;exitX=0;exitY=0.75;exitDx=0;exitDy=0;" parent="1" source="Uv9UQddPjhOq4ZetmZ8k-118" target="Uv9UQddPjhOq4ZetmZ8k-139" edge="1">
          <mxGeometry relative="1" as="geometry">
            <mxPoint x="2685" y="510" as="sourcePoint" />
            <mxPoint x="2885" y="640" as="targetPoint" />
          </mxGeometry>
        </mxCell>
        <mxCell id="Uv9UQddPjhOq4ZetmZ8k-141" value="" style="endArrow=none;html=1;rounded=0;entryX=1;entryY=0;entryDx=0;entryDy=0;exitX=0.075;exitY=1;exitDx=0;exitDy=0;exitPerimeter=0;" parent="1" source="Uv9UQddPjhOq4ZetmZ8k-118" target="Uv9UQddPjhOq4ZetmZ8k-138" edge="1">
          <mxGeometry relative="1" as="geometry">
            <mxPoint x="2695" y="470" as="sourcePoint" />
            <mxPoint x="2895" y="650" as="targetPoint" />
          </mxGeometry>
        </mxCell>
        <mxCell id="Uv9UQddPjhOq4ZetmZ8k-142" value="" style="endArrow=none;html=1;rounded=0;entryX=0.614;entryY=0;entryDx=0;entryDy=0;entryPerimeter=0;exitX=0.25;exitY=1;exitDx=0;exitDy=0;" parent="1" source="Uv9UQddPjhOq4ZetmZ8k-118" target="Uv9UQddPjhOq4ZetmZ8k-137" edge="1">
          <mxGeometry relative="1" as="geometry">
            <mxPoint x="2695" y="530" as="sourcePoint" />
            <mxPoint x="2905" y="660" as="targetPoint" />
          </mxGeometry>
        </mxCell>
        <mxCell id="Uv9UQddPjhOq4ZetmZ8k-143" value="" style="endArrow=none;html=1;rounded=0;exitX=0.35;exitY=0.983;exitDx=0;exitDy=0;entryX=0.5;entryY=0;entryDx=0;entryDy=0;exitPerimeter=0;" parent="1" source="Uv9UQddPjhOq4ZetmZ8k-118" target="Uv9UQddPjhOq4ZetmZ8k-135" edge="1">
          <mxGeometry relative="1" as="geometry">
            <mxPoint x="2838" y="570" as="sourcePoint" />
            <mxPoint x="2915" y="670" as="targetPoint" />
          </mxGeometry>
        </mxCell>
        <mxCell id="Uv9UQddPjhOq4ZetmZ8k-144" value="" style="endArrow=none;html=1;rounded=0;entryX=0.5;entryY=0;entryDx=0;entryDy=0;exitX=0.5;exitY=1;exitDx=0;exitDy=0;" parent="1" source="Uv9UQddPjhOq4ZetmZ8k-118" target="Uv9UQddPjhOq4ZetmZ8k-136" edge="1">
          <mxGeometry relative="1" as="geometry">
            <mxPoint x="2685" y="510" as="sourcePoint" />
            <mxPoint x="2925" y="680" as="targetPoint" />
          </mxGeometry>
        </mxCell>
        <mxCell id="Uv9UQddPjhOq4ZetmZ8k-145" value="&lt;h3&gt;&lt;u&gt;department_id&lt;/u&gt;&lt;/h3&gt;" style="ellipse;whiteSpace=wrap;html=1;" parent="1" vertex="1">
          <mxGeometry x="3175" y="350" width="120" height="50" as="geometry" />
        </mxCell>
        <mxCell id="Uv9UQddPjhOq4ZetmZ8k-147" value="&lt;h3&gt;&lt;span style=&quot;font-weight: normal;&quot;&gt;name&lt;/span&gt;&lt;/h3&gt;" style="ellipse;whiteSpace=wrap;html=1;align=center;" parent="1" vertex="1">
          <mxGeometry x="3085" y="310" width="110" height="50" as="geometry" />
        </mxCell>
        <mxCell id="Uv9UQddPjhOq4ZetmZ8k-148" value="" style="endArrow=none;html=1;rounded=0;exitX=0.75;exitY=0;exitDx=0;exitDy=0;entryX=0.546;entryY=0.984;entryDx=0;entryDy=0;entryPerimeter=0;" parent="1" source="Uv9UQddPjhOq4ZetmZ8k-120" target="Uv9UQddPjhOq4ZetmZ8k-145" edge="1">
          <mxGeometry relative="1" as="geometry">
            <mxPoint x="3185" y="511" as="sourcePoint" />
            <mxPoint x="3229" y="400" as="targetPoint" />
          </mxGeometry>
        </mxCell>
        <mxCell id="Uv9UQddPjhOq4ZetmZ8k-149" value="" style="endArrow=none;html=1;rounded=0;exitX=0.5;exitY=0;exitDx=0;exitDy=0;entryX=0.649;entryY=0.984;entryDx=0;entryDy=0;entryPerimeter=0;" parent="1" source="Uv9UQddPjhOq4ZetmZ8k-120" target="Uv9UQddPjhOq4ZetmZ8k-147" edge="1">
          <mxGeometry relative="1" as="geometry">
            <mxPoint x="3215" y="480" as="sourcePoint" />
            <mxPoint x="3241" y="409" as="targetPoint" />
          </mxGeometry>
        </mxCell>
        <mxCell id="Uv9UQddPjhOq4ZetmZ8k-151" value="&lt;h3&gt;&lt;span style=&quot;font-weight: normal;&quot;&gt;location&lt;/span&gt;&lt;/h3&gt;" style="ellipse;shape=doubleEllipse;margin=3;whiteSpace=wrap;html=1;align=center;" parent="1" vertex="1">
          <mxGeometry x="2960" y="330" width="100" height="40" as="geometry" />
        </mxCell>
        <mxCell id="Uv9UQddPjhOq4ZetmZ8k-152" value="" style="endArrow=none;html=1;rounded=0;entryX=0.25;entryY=0;entryDx=0;entryDy=0;exitX=0.79;exitY=0.913;exitDx=0;exitDy=0;exitPerimeter=0;" parent="1" source="Uv9UQddPjhOq4ZetmZ8k-151" target="Uv9UQddPjhOq4ZetmZ8k-120" edge="1">
          <mxGeometry relative="1" as="geometry">
            <mxPoint x="2775" y="460" as="sourcePoint" />
            <mxPoint x="2935" y="460" as="targetPoint" />
          </mxGeometry>
        </mxCell>
        <mxCell id="Uv9UQddPjhOq4ZetmZ8k-153" value="&lt;h2&gt;Project&lt;/h2&gt;" style="rounded=0;whiteSpace=wrap;html=1;fillColor=#dae8fc;strokeColor=#6c8ebf;" parent="1" vertex="1">
          <mxGeometry x="3115" y="735" width="120" height="55" as="geometry" />
        </mxCell>
        <mxCell id="Uv9UQddPjhOq4ZetmZ8k-154" value="&lt;h2&gt;Control&lt;/h2&gt;" style="rhombus;whiteSpace=wrap;html=1;fillColor=#fff2cc;strokeColor=#d6b656;" parent="1" vertex="1">
          <mxGeometry x="3115" y="600" width="120" height="70" as="geometry" />
        </mxCell>
        <mxCell id="Uv9UQddPjhOq4ZetmZ8k-155" value="" style="endArrow=none;html=1;rounded=0;entryX=0.5;entryY=0;entryDx=0;entryDy=0;exitX=0.5;exitY=1;exitDx=0;exitDy=0;" parent="1" source="Uv9UQddPjhOq4ZetmZ8k-120" target="Uv9UQddPjhOq4ZetmZ8k-154" edge="1">
          <mxGeometry relative="1" as="geometry">
            <mxPoint x="2775" y="740" as="sourcePoint" />
            <mxPoint x="2935" y="740" as="targetPoint" />
          </mxGeometry>
        </mxCell>
        <mxCell id="Uv9UQddPjhOq4ZetmZ8k-156" value="&lt;h2&gt;M&lt;/h2&gt;" style="resizable=0;html=1;whiteSpace=wrap;align=right;verticalAlign=bottom;" parent="Uv9UQddPjhOq4ZetmZ8k-155" connectable="0" vertex="1">
          <mxGeometry x="1" relative="1" as="geometry">
            <mxPoint y="10" as="offset" />
          </mxGeometry>
        </mxCell>
        <mxCell id="Uv9UQddPjhOq4ZetmZ8k-157" value="" style="endArrow=none;html=1;rounded=0;entryX=0.5;entryY=1;entryDx=0;entryDy=0;exitX=0.5;exitY=0;exitDx=0;exitDy=0;" parent="1" source="Uv9UQddPjhOq4ZetmZ8k-153" target="Uv9UQddPjhOq4ZetmZ8k-154" edge="1">
          <mxGeometry relative="1" as="geometry">
            <mxPoint x="2845" y="650" as="sourcePoint" />
            <mxPoint x="3005" y="650" as="targetPoint" />
          </mxGeometry>
        </mxCell>
        <mxCell id="Uv9UQddPjhOq4ZetmZ8k-158" value="&lt;h3&gt;&lt;font style=&quot;font-size: 18px;&quot;&gt;N&lt;/font&gt;&lt;/h3&gt;" style="resizable=0;html=1;whiteSpace=wrap;align=right;verticalAlign=bottom;" parent="Uv9UQddPjhOq4ZetmZ8k-157" connectable="0" vertex="1">
          <mxGeometry x="1" relative="1" as="geometry">
            <mxPoint y="40" as="offset" />
          </mxGeometry>
        </mxCell>
        <mxCell id="Uv9UQddPjhOq4ZetmZ8k-159" value="&lt;h2&gt;Work On&lt;/h2&gt;" style="shape=rhombus;perimeter=rhombusPerimeter;whiteSpace=wrap;html=1;align=center;fillColor=#fff2cc;strokeColor=#d6b656;" parent="1" vertex="1">
          <mxGeometry x="2845" y="630" width="120" height="60" as="geometry" />
        </mxCell>
        <mxCell id="Uv9UQddPjhOq4ZetmZ8k-160" value="" style="endArrow=none;html=1;rounded=0;exitX=0.709;exitY=0.998;exitDx=0;exitDy=0;entryX=0;entryY=0;entryDx=0;entryDy=0;exitPerimeter=0;" parent="1" source="Uv9UQddPjhOq4ZetmZ8k-118" target="Uv9UQddPjhOq4ZetmZ8k-159" edge="1">
          <mxGeometry relative="1" as="geometry">
            <mxPoint x="2815" y="510" as="sourcePoint" />
            <mxPoint x="2899" y="510" as="targetPoint" />
          </mxGeometry>
        </mxCell>
        <mxCell id="Uv9UQddPjhOq4ZetmZ8k-161" value="&lt;h3&gt;&lt;font style=&quot;font-size: 18px;&quot;&gt;M&lt;/font&gt;&lt;/h3&gt;" style="resizable=0;html=1;whiteSpace=wrap;align=right;verticalAlign=bottom;" parent="Uv9UQddPjhOq4ZetmZ8k-160" connectable="0" vertex="1">
          <mxGeometry x="1" relative="1" as="geometry">
            <mxPoint x="10" y="5" as="offset" />
          </mxGeometry>
        </mxCell>
        <mxCell id="Uv9UQddPjhOq4ZetmZ8k-162" value="" style="endArrow=none;html=1;rounded=0;exitX=0;exitY=0.5;exitDx=0;exitDy=0;entryX=0.824;entryY=0.676;entryDx=0;entryDy=0;entryPerimeter=0;" parent="1" source="Uv9UQddPjhOq4ZetmZ8k-153" target="Uv9UQddPjhOq4ZetmZ8k-159" edge="1">
          <mxGeometry relative="1" as="geometry">
            <mxPoint x="2815" y="510" as="sourcePoint" />
            <mxPoint x="2899" y="510" as="targetPoint" />
          </mxGeometry>
        </mxCell>
        <mxCell id="Uv9UQddPjhOq4ZetmZ8k-163" value="&lt;h3&gt;&lt;font style=&quot;font-size: 18px;&quot;&gt;N&lt;/font&gt;&lt;/h3&gt;" style="resizable=0;html=1;whiteSpace=wrap;align=right;verticalAlign=bottom;" parent="Uv9UQddPjhOq4ZetmZ8k-162" connectable="0" vertex="1">
          <mxGeometry x="1" relative="1" as="geometry">
            <mxPoint x="41" y="29" as="offset" />
          </mxGeometry>
        </mxCell>
        <mxCell id="Uv9UQddPjhOq4ZetmZ8k-164" value="working hours" style="ellipse;shape=doubleEllipse;margin=3;whiteSpace=wrap;html=1;align=center;" parent="1" vertex="1">
          <mxGeometry x="2875" y="735" width="100" height="40" as="geometry" />
        </mxCell>
        <mxCell id="Uv9UQddPjhOq4ZetmZ8k-165" value="" style="endArrow=none;html=1;rounded=0;exitX=0.567;exitY=0.9;exitDx=0;exitDy=0;exitPerimeter=0;entryX=0.5;entryY=0;entryDx=0;entryDy=0;" parent="1" source="Uv9UQddPjhOq4ZetmZ8k-159" target="Uv9UQddPjhOq4ZetmZ8k-164" edge="1">
          <mxGeometry relative="1" as="geometry">
            <mxPoint x="2725" y="480" as="sourcePoint" />
            <mxPoint x="2925" y="730" as="targetPoint" />
          </mxGeometry>
        </mxCell>
        <mxCell id="Uv9UQddPjhOq4ZetmZ8k-166" value="&lt;h3&gt;&lt;u style=&quot;&quot;&gt;project_id&lt;/u&gt;&lt;/h3&gt;" style="ellipse;whiteSpace=wrap;html=1;" parent="1" vertex="1">
          <mxGeometry x="3165" y="840" width="120" height="50" as="geometry" />
        </mxCell>
        <mxCell id="Uv9UQddPjhOq4ZetmZ8k-167" value="&lt;h3&gt;&lt;span style=&quot;font-weight: normal;&quot;&gt;name&lt;/span&gt;&lt;/h3&gt;" style="ellipse;whiteSpace=wrap;html=1;align=center;" parent="1" vertex="1">
          <mxGeometry x="3035" y="850" width="110" height="50" as="geometry" />
        </mxCell>
        <mxCell id="Uv9UQddPjhOq4ZetmZ8k-168" value="&lt;h3&gt;&lt;span style=&quot;font-weight: normal;&quot;&gt;location&lt;/span&gt;&lt;/h3&gt;" style="ellipse;whiteSpace=wrap;html=1;align=center;" parent="1" vertex="1">
          <mxGeometry x="2955" y="800" width="110" height="50" as="geometry" />
        </mxCell>
        <mxCell id="Uv9UQddPjhOq4ZetmZ8k-169" value="" style="endArrow=none;html=1;rounded=0;entryX=0.5;entryY=0;entryDx=0;entryDy=0;" parent="1" target="Uv9UQddPjhOq4ZetmZ8k-166" edge="1">
          <mxGeometry relative="1" as="geometry">
            <mxPoint x="3195" y="790" as="sourcePoint" />
            <mxPoint x="3205" y="820" as="targetPoint" />
          </mxGeometry>
        </mxCell>
        <mxCell id="Uv9UQddPjhOq4ZetmZ8k-170" value="" style="endArrow=none;html=1;rounded=0;entryX=0.796;entryY=0.097;entryDx=0;entryDy=0;exitX=0.344;exitY=1.005;exitDx=0;exitDy=0;exitPerimeter=0;entryPerimeter=0;" parent="1" target="Uv9UQddPjhOq4ZetmZ8k-167" edge="1">
          <mxGeometry relative="1" as="geometry">
            <mxPoint x="3156.2799999999997" y="789.9950000000001" as="sourcePoint" />
            <mxPoint x="3215" y="889.72" as="targetPoint" />
          </mxGeometry>
        </mxCell>
        <mxCell id="Uv9UQddPjhOq4ZetmZ8k-171" value="" style="endArrow=none;html=1;rounded=0;entryX=1;entryY=0;entryDx=0;entryDy=0;" parent="1" target="Uv9UQddPjhOq4ZetmZ8k-168" edge="1">
          <mxGeometry relative="1" as="geometry">
            <mxPoint x="3115" y="780" as="sourcePoint" />
            <mxPoint x="3225" y="900" as="targetPoint" />
          </mxGeometry>
        </mxCell>
        <mxCell id="Uv9UQddPjhOq4ZetmZ8k-172" value="" style="endArrow=none;html=1;rounded=0;entryX=0.003;entryY=0.355;entryDx=0;entryDy=0;entryPerimeter=0;" parent="1" target="Uv9UQddPjhOq4ZetmZ8k-118" edge="1">
          <mxGeometry relative="1" as="geometry">
            <mxPoint x="2565" y="490" as="sourcePoint" />
            <mxPoint x="2655" y="660" as="targetPoint" />
          </mxGeometry>
        </mxCell>
        <mxCell id="Uv9UQddPjhOq4ZetmZ8k-173" value="" style="endArrow=none;html=1;rounded=0;entryX=0.25;entryY=0;entryDx=0;entryDy=0;" parent="1" target="Uv9UQddPjhOq4ZetmZ8k-118" edge="1">
          <mxGeometry relative="1" as="geometry">
            <mxPoint x="2715" y="400" as="sourcePoint" />
            <mxPoint x="2715" y="460" as="targetPoint" />
          </mxGeometry>
        </mxCell>
        <mxCell id="Uv9UQddPjhOq4ZetmZ8k-174" value="" style="endArrow=none;html=1;rounded=0;entryX=1;entryY=0.5;entryDx=0;entryDy=0;" parent="1" target="Uv9UQddPjhOq4ZetmZ8k-126" edge="1">
          <mxGeometry relative="1" as="geometry">
            <mxPoint x="2715" y="400" as="sourcePoint" />
            <mxPoint x="2689" y="430" as="targetPoint" />
          </mxGeometry>
        </mxCell>
        <mxCell id="Uv9UQddPjhOq4ZetmZ8k-175" value="&lt;h3&gt;&lt;font style=&quot;font-size: 18px;&quot;&gt;N&lt;/font&gt;&lt;/h3&gt;" style="resizable=0;html=1;whiteSpace=wrap;align=right;verticalAlign=bottom;" parent="Uv9UQddPjhOq4ZetmZ8k-174" connectable="0" vertex="1">
          <mxGeometry x="1" relative="1" as="geometry">
            <mxPoint x="20" y="15" as="offset" />
          </mxGeometry>
        </mxCell>
        <mxCell id="Uv9UQddPjhOq4ZetmZ8k-176" value="" style="endArrow=none;html=1;rounded=0;entryX=0.5;entryY=1;entryDx=0;entryDy=0;" parent="1" target="Uv9UQddPjhOq4ZetmZ8k-126" edge="1">
          <mxGeometry relative="1" as="geometry">
            <mxPoint x="2565" y="490" as="sourcePoint" />
            <mxPoint x="2525" y="465" as="targetPoint" />
          </mxGeometry>
        </mxCell>
        <mxCell id="Uv9UQddPjhOq4ZetmZ8k-177" value="&lt;h2&gt;1&lt;/h2&gt;" style="resizable=0;html=1;whiteSpace=wrap;align=right;verticalAlign=bottom;" parent="Uv9UQddPjhOq4ZetmZ8k-176" connectable="0" vertex="1">
          <mxGeometry x="1" relative="1" as="geometry">
            <mxPoint y="40" as="offset" />
          </mxGeometry>
        </mxCell>
        <mxCell id="Uv9UQddPjhOq4ZetmZ8k-178" value="" style="endArrow=none;html=1;rounded=0;entryX=0.5;entryY=0;entryDx=0;entryDy=0;exitX=0.5;exitY=1;exitDx=0;exitDy=0;" parent="1" source="Uv9UQddPjhOq4ZetmZ8k-127" target="Uv9UQddPjhOq4ZetmZ8k-118" edge="1">
          <mxGeometry relative="1" as="geometry">
            <mxPoint x="2775" y="385" as="sourcePoint" />
            <mxPoint x="2835" y="555" as="targetPoint" />
          </mxGeometry>
        </mxCell>
        <mxCell id="Z0TpVHrKfl-YzGP-3lOC-1" value="&lt;h2&gt;Manage&lt;/h2&gt;" style="rhombus;whiteSpace=wrap;html=1;fillColor=#fff2cc;strokeColor=#d6b656;" parent="1" vertex="1">
          <mxGeometry x="2900" y="405" width="116" height="70" as="geometry" />
        </mxCell>
        <mxCell id="Z0TpVHrKfl-YzGP-3lOC-2" value="" style="endArrow=none;html=1;rounded=0;exitX=0;exitY=0.25;exitDx=0;exitDy=0;entryX=1;entryY=0.5;entryDx=0;entryDy=0;" parent="1" source="Uv9UQddPjhOq4ZetmZ8k-120" target="Z0TpVHrKfl-YzGP-3lOC-1" edge="1">
          <mxGeometry relative="1" as="geometry">
            <mxPoint x="2815" y="510" as="sourcePoint" />
            <mxPoint x="2899" y="510" as="targetPoint" />
          </mxGeometry>
        </mxCell>
        <mxCell id="Z0TpVHrKfl-YzGP-3lOC-3" value="&lt;h3&gt;&lt;font style=&quot;font-size: 18px;&quot;&gt;N&lt;/font&gt;&lt;/h3&gt;" style="resizable=0;html=1;whiteSpace=wrap;align=right;verticalAlign=bottom;" parent="Z0TpVHrKfl-YzGP-3lOC-2" connectable="0" vertex="1">
          <mxGeometry x="1" relative="1" as="geometry">
            <mxPoint x="30" y="20" as="offset" />
          </mxGeometry>
        </mxCell>
        <mxCell id="Z0TpVHrKfl-YzGP-3lOC-4" value="" style="endArrow=none;html=1;rounded=0;entryX=0;entryY=0.5;entryDx=0;entryDy=0;exitX=1;exitY=0.25;exitDx=0;exitDy=0;" parent="1" target="Z0TpVHrKfl-YzGP-3lOC-1" edge="1">
          <mxGeometry relative="1" as="geometry">
            <mxPoint x="2805" y="490" as="sourcePoint" />
            <mxPoint x="2889" y="425" as="targetPoint" />
          </mxGeometry>
        </mxCell>
        <mxCell id="Z0TpVHrKfl-YzGP-3lOC-5" value="&lt;h2&gt;1&lt;/h2&gt;" style="resizable=0;html=1;whiteSpace=wrap;align=right;verticalAlign=bottom;direction=south;" parent="Z0TpVHrKfl-YzGP-3lOC-4" connectable="0" vertex="1">
          <mxGeometry x="1" relative="1" as="geometry">
            <mxPoint x="-14" y="20" as="offset" />
          </mxGeometry>
        </mxCell>
        <mxCell id="aTOsiwocZyl_tWSwXIP_-46" value="&lt;h1&gt;醫師&lt;/h1&gt;" style="rounded=0;whiteSpace=wrap;html=1;fillColor=#dae8fc;strokeColor=#6c8ebf;" vertex="1" parent="1">
          <mxGeometry x="1813" y="380" width="120" height="60" as="geometry" />
        </mxCell>
        <mxCell id="aTOsiwocZyl_tWSwXIP_-47" value="&lt;h1&gt;檢驗&lt;/h1&gt;" style="rhombus;whiteSpace=wrap;html=1;fillColor=#fff2cc;strokeColor=#d6b656;" vertex="1" parent="1">
          <mxGeometry x="2033" y="375" width="130" height="70" as="geometry" />
        </mxCell>
        <mxCell id="aTOsiwocZyl_tWSwXIP_-48" value="&lt;h1&gt;住院病人&lt;/h1&gt;" style="rounded=0;whiteSpace=wrap;html=1;fillColor=#dae8fc;strokeColor=#6c8ebf;" vertex="1" parent="1">
          <mxGeometry x="2263" y="380" width="120" height="60" as="geometry" />
        </mxCell>
        <mxCell id="aTOsiwocZyl_tWSwXIP_-49" value="" style="endArrow=none;html=1;rounded=0;entryX=1;entryY=0.5;entryDx=0;entryDy=0;exitX=0;exitY=0.5;exitDx=0;exitDy=0;" edge="1" parent="1" source="aTOsiwocZyl_tWSwXIP_-48" target="aTOsiwocZyl_tWSwXIP_-47">
          <mxGeometry relative="1" as="geometry">
            <mxPoint x="2083" y="610" as="sourcePoint" />
            <mxPoint x="2243" y="610" as="targetPoint" />
          </mxGeometry>
        </mxCell>
        <mxCell id="aTOsiwocZyl_tWSwXIP_-50" value="&lt;h1&gt;N&lt;/h1&gt;" style="resizable=0;html=1;whiteSpace=wrap;align=right;verticalAlign=bottom;" connectable="0" vertex="1" parent="aTOsiwocZyl_tWSwXIP_-49">
          <mxGeometry x="1" relative="1" as="geometry">
            <mxPoint x="20" y="15" as="offset" />
          </mxGeometry>
        </mxCell>
        <mxCell id="aTOsiwocZyl_tWSwXIP_-51" value="" style="endArrow=none;html=1;rounded=0;exitX=1;exitY=0.5;exitDx=0;exitDy=0;entryX=0;entryY=0.5;entryDx=0;entryDy=0;" edge="1" parent="1" source="aTOsiwocZyl_tWSwXIP_-46" target="aTOsiwocZyl_tWSwXIP_-47">
          <mxGeometry relative="1" as="geometry">
            <mxPoint x="2083" y="610" as="sourcePoint" />
            <mxPoint x="2243" y="610" as="targetPoint" />
          </mxGeometry>
        </mxCell>
        <mxCell id="aTOsiwocZyl_tWSwXIP_-52" value="&lt;h1&gt;&lt;font style=&quot;font-size: 22px;&quot;&gt;M&lt;/font&gt;&lt;/h1&gt;" style="resizable=0;html=1;whiteSpace=wrap;align=right;verticalAlign=bottom;" connectable="0" vertex="1" parent="aTOsiwocZyl_tWSwXIP_-51">
          <mxGeometry x="1" relative="1" as="geometry">
            <mxPoint x="-10" y="15" as="offset" />
          </mxGeometry>
        </mxCell>
        <mxCell id="aTOsiwocZyl_tWSwXIP_-53" value="&lt;h2&gt;&lt;u&gt;代號&lt;/u&gt;&lt;/h2&gt;" style="ellipse;whiteSpace=wrap;html=1;" vertex="1" parent="1">
          <mxGeometry x="1848" y="500" width="120" height="50" as="geometry" />
        </mxCell>
        <mxCell id="aTOsiwocZyl_tWSwXIP_-54" value="" style="endArrow=none;html=1;rounded=0;entryX=0.5;entryY=0;entryDx=0;entryDy=0;exitX=0.5;exitY=1;exitDx=0;exitDy=0;" edge="1" parent="1" source="aTOsiwocZyl_tWSwXIP_-46" target="aTOsiwocZyl_tWSwXIP_-53">
          <mxGeometry relative="1" as="geometry">
            <mxPoint x="1933" y="380" as="sourcePoint" />
            <mxPoint x="2393" y="610" as="targetPoint" />
          </mxGeometry>
        </mxCell>
        <mxCell id="aTOsiwocZyl_tWSwXIP_-55" value="&lt;h2&gt;&lt;span style=&quot;font-weight: normal;&quot;&gt;姓名&lt;/span&gt;&lt;/h2&gt;" style="ellipse;whiteSpace=wrap;html=1;align=center;" vertex="1" parent="1">
          <mxGeometry x="1713" y="500" width="110" height="50" as="geometry" />
        </mxCell>
        <mxCell id="aTOsiwocZyl_tWSwXIP_-56" value="" style="endArrow=none;html=1;rounded=0;entryX=0.25;entryY=1;entryDx=0;entryDy=0;" edge="1" parent="1" source="aTOsiwocZyl_tWSwXIP_-55" target="aTOsiwocZyl_tWSwXIP_-46">
          <mxGeometry relative="1" as="geometry">
            <mxPoint x="2083" y="600" as="sourcePoint" />
            <mxPoint x="2243" y="600" as="targetPoint" />
          </mxGeometry>
        </mxCell>
        <mxCell id="aTOsiwocZyl_tWSwXIP_-57" value="&lt;h2&gt;&lt;u&gt;病人代號&lt;/u&gt;&lt;/h2&gt;" style="ellipse;whiteSpace=wrap;html=1;" vertex="1" parent="1">
          <mxGeometry x="2183" y="240" width="120" height="50" as="geometry" />
        </mxCell>
        <mxCell id="aTOsiwocZyl_tWSwXIP_-58" value="&lt;h2&gt;&lt;span style=&quot;font-weight: normal;&quot;&gt;姓名&lt;/span&gt;&lt;/h2&gt;" style="ellipse;whiteSpace=wrap;html=1;align=center;" vertex="1" parent="1">
          <mxGeometry x="2338" y="240" width="110" height="50" as="geometry" />
        </mxCell>
        <mxCell id="aTOsiwocZyl_tWSwXIP_-59" value="" style="endArrow=none;html=1;rounded=0;exitX=0.25;exitY=0;exitDx=0;exitDy=0;" edge="1" parent="1" source="aTOsiwocZyl_tWSwXIP_-48" target="aTOsiwocZyl_tWSwXIP_-57">
          <mxGeometry relative="1" as="geometry">
            <mxPoint x="2303" y="380" as="sourcePoint" />
            <mxPoint x="2243" y="600" as="targetPoint" />
          </mxGeometry>
        </mxCell>
        <mxCell id="aTOsiwocZyl_tWSwXIP_-60" value="" style="endArrow=none;html=1;rounded=0;entryX=0.5;entryY=1;entryDx=0;entryDy=0;exitX=0.5;exitY=0;exitDx=0;exitDy=0;" edge="1" parent="1" source="aTOsiwocZyl_tWSwXIP_-48" target="aTOsiwocZyl_tWSwXIP_-58">
          <mxGeometry relative="1" as="geometry">
            <mxPoint x="2373" y="380" as="sourcePoint" />
            <mxPoint x="2613" y="410" as="targetPoint" />
          </mxGeometry>
        </mxCell>
        <mxCell id="aTOsiwocZyl_tWSwXIP_-61" value="" style="endArrow=none;html=1;rounded=0;entryX=0.723;entryY=0.93;entryDx=0;entryDy=0;exitX=0;exitY=0;exitDx=0;exitDy=0;entryPerimeter=0;" edge="1" parent="1" source="aTOsiwocZyl_tWSwXIP_-48" target="aTOsiwocZyl_tWSwXIP_-62">
          <mxGeometry relative="1" as="geometry">
            <mxPoint x="2393" y="450" as="sourcePoint" />
            <mxPoint x="2350.5" y="512" as="targetPoint" />
          </mxGeometry>
        </mxCell>
        <mxCell id="aTOsiwocZyl_tWSwXIP_-62" value="&lt;h2&gt;緊急連絡人&lt;/h2&gt;" style="ellipse;shape=doubleEllipse;margin=3;whiteSpace=wrap;html=1;align=center;" vertex="1" parent="1">
          <mxGeometry x="2033" y="270" width="110" height="50" as="geometry" />
        </mxCell>
        <mxCell id="aTOsiwocZyl_tWSwXIP_-63" value="&lt;h2&gt;&lt;span style=&quot;font-weight: normal;&quot;&gt;姓名&lt;/span&gt;&lt;/h2&gt;" style="ellipse;whiteSpace=wrap;html=1;align=center;" vertex="1" parent="1">
          <mxGeometry x="1923" y="180" width="120" height="50" as="geometry" />
        </mxCell>
        <mxCell id="aTOsiwocZyl_tWSwXIP_-64" value="&lt;h2&gt;&lt;span style=&quot;font-weight: normal;&quot;&gt;電話&lt;/span&gt;&lt;/h2&gt;" style="ellipse;whiteSpace=wrap;html=1;align=center;" vertex="1" parent="1">
          <mxGeometry x="2063" y="180" width="120" height="50" as="geometry" />
        </mxCell>
        <mxCell id="aTOsiwocZyl_tWSwXIP_-65" value="" style="endArrow=none;html=1;rounded=0;exitX=0.689;exitY=0.957;exitDx=0;exitDy=0;exitPerimeter=0;entryX=0.218;entryY=0.084;entryDx=0;entryDy=0;entryPerimeter=0;" edge="1" parent="1" source="aTOsiwocZyl_tWSwXIP_-63" target="aTOsiwocZyl_tWSwXIP_-62">
          <mxGeometry relative="1" as="geometry">
            <mxPoint x="2093" y="580" as="sourcePoint" />
            <mxPoint x="2053" y="270" as="targetPoint" />
          </mxGeometry>
        </mxCell>
        <mxCell id="aTOsiwocZyl_tWSwXIP_-66" value="" style="endArrow=none;html=1;rounded=0;entryX=0.716;entryY=0.048;entryDx=0;entryDy=0;entryPerimeter=0;exitX=0.5;exitY=1;exitDx=0;exitDy=0;" edge="1" parent="1" source="aTOsiwocZyl_tWSwXIP_-64" target="aTOsiwocZyl_tWSwXIP_-62">
          <mxGeometry relative="1" as="geometry">
            <mxPoint x="2098" y="240" as="sourcePoint" />
            <mxPoint x="2351" y="570" as="targetPoint" />
          </mxGeometry>
        </mxCell>
        <mxCell id="aTOsiwocZyl_tWSwXIP_-67" value="&lt;h1&gt;檢驗項目&lt;/h1&gt;" style="rounded=0;whiteSpace=wrap;html=1;" vertex="1" parent="1">
          <mxGeometry x="2038" y="550" width="120" height="60" as="geometry" />
        </mxCell>
        <mxCell id="aTOsiwocZyl_tWSwXIP_-68" value="" style="endArrow=none;html=1;rounded=0;entryX=0.5;entryY=1;entryDx=0;entryDy=0;exitX=0.5;exitY=0;exitDx=0;exitDy=0;" edge="1" parent="1" source="aTOsiwocZyl_tWSwXIP_-67" target="aTOsiwocZyl_tWSwXIP_-47">
          <mxGeometry relative="1" as="geometry">
            <mxPoint x="1923" y="504.5" as="sourcePoint" />
            <mxPoint x="2083" y="504.5" as="targetPoint" />
          </mxGeometry>
        </mxCell>
        <mxCell id="aTOsiwocZyl_tWSwXIP_-69" value="&lt;h1&gt;O&lt;/h1&gt;" style="resizable=0;html=1;whiteSpace=wrap;align=right;verticalAlign=bottom;" connectable="0" vertex="1" parent="aTOsiwocZyl_tWSwXIP_-68">
          <mxGeometry x="1" relative="1" as="geometry">
            <mxPoint x="25" y="55" as="offset" />
          </mxGeometry>
        </mxCell>
        <mxCell id="aTOsiwocZyl_tWSwXIP_-70" value="&lt;h2&gt;&lt;u&gt;項目代號&lt;/u&gt;&lt;/h2&gt;" style="ellipse;whiteSpace=wrap;html=1;" vertex="1" parent="1">
          <mxGeometry x="2083" y="690" width="120" height="50" as="geometry" />
        </mxCell>
        <mxCell id="aTOsiwocZyl_tWSwXIP_-71" value="" style="endArrow=none;html=1;rounded=0;entryX=0.5;entryY=1;entryDx=0;entryDy=0;exitX=0.371;exitY=0.04;exitDx=0;exitDy=0;exitPerimeter=0;" edge="1" parent="1" source="aTOsiwocZyl_tWSwXIP_-70" target="aTOsiwocZyl_tWSwXIP_-67">
          <mxGeometry relative="1" as="geometry">
            <mxPoint x="1853" y="690" as="sourcePoint" />
            <mxPoint x="1983" y="680" as="targetPoint" />
          </mxGeometry>
        </mxCell>
        <mxCell id="aTOsiwocZyl_tWSwXIP_-72" value="&lt;h2&gt;&lt;span style=&quot;font-weight: normal;&quot;&gt;名稱&lt;/span&gt;&lt;/h2&gt;" style="ellipse;whiteSpace=wrap;html=1;align=center;" vertex="1" parent="1">
          <mxGeometry x="1953" y="690" width="110" height="50" as="geometry" />
        </mxCell>
        <mxCell id="aTOsiwocZyl_tWSwXIP_-73" value="" style="endArrow=none;html=1;rounded=0;exitX=1;exitY=0;exitDx=0;exitDy=0;entryX=0.308;entryY=1;entryDx=0;entryDy=0;entryPerimeter=0;" edge="1" parent="1" source="aTOsiwocZyl_tWSwXIP_-72" target="aTOsiwocZyl_tWSwXIP_-67">
          <mxGeometry relative="1" as="geometry">
            <mxPoint x="1753" y="610" as="sourcePoint" />
            <mxPoint x="1913" y="610" as="targetPoint" />
          </mxGeometry>
        </mxCell>
        <mxCell id="aTOsiwocZyl_tWSwXIP_-74" value="&lt;h1&gt;病房&lt;/h1&gt;" style="rounded=0;whiteSpace=wrap;html=1;fillColor=#dae8fc;strokeColor=#6c8ebf;" vertex="1" parent="1">
          <mxGeometry x="2263" y="640" width="120" height="60" as="geometry" />
        </mxCell>
        <mxCell id="aTOsiwocZyl_tWSwXIP_-75" value="&lt;h2&gt;&lt;u&gt;房號&lt;/u&gt;&lt;/h2&gt;" style="ellipse;whiteSpace=wrap;html=1;" vertex="1" parent="1">
          <mxGeometry x="2333" y="780" width="120" height="50" as="geometry" />
        </mxCell>
        <mxCell id="aTOsiwocZyl_tWSwXIP_-76" value="&lt;h2&gt;&lt;span style=&quot;font-weight: normal;&quot;&gt;等級&lt;/span&gt;&lt;/h2&gt;" style="ellipse;whiteSpace=wrap;html=1;align=center;" vertex="1" parent="1">
          <mxGeometry x="2188" y="780" width="110" height="50" as="geometry" />
        </mxCell>
        <mxCell id="aTOsiwocZyl_tWSwXIP_-77" value="" style="endArrow=none;html=1;rounded=0;exitX=0.608;exitY=0.01;exitDx=0;exitDy=0;exitPerimeter=0;" edge="1" parent="1" source="aTOsiwocZyl_tWSwXIP_-76">
          <mxGeometry relative="1" as="geometry">
            <mxPoint x="2203" y="691" as="sourcePoint" />
            <mxPoint x="2313" y="700" as="targetPoint" />
          </mxGeometry>
        </mxCell>
        <mxCell id="aTOsiwocZyl_tWSwXIP_-78" value="" style="endArrow=none;html=1;rounded=0;entryX=0.638;entryY=1;entryDx=0;entryDy=0;exitX=0.413;exitY=0.012;exitDx=0;exitDy=0;exitPerimeter=0;entryPerimeter=0;" edge="1" parent="1" source="aTOsiwocZyl_tWSwXIP_-75" target="aTOsiwocZyl_tWSwXIP_-74">
          <mxGeometry relative="1" as="geometry">
            <mxPoint x="2201" y="714" as="sourcePoint" />
            <mxPoint x="2287" y="640" as="targetPoint" />
          </mxGeometry>
        </mxCell>
        <mxCell id="aTOsiwocZyl_tWSwXIP_-79" value="&lt;h1&gt;容納&lt;/h1&gt;" style="rhombus;whiteSpace=wrap;html=1;fillColor=#fff2cc;strokeColor=#d6b656;" vertex="1" parent="1">
          <mxGeometry x="2263" y="510" width="120" height="70" as="geometry" />
        </mxCell>
        <mxCell id="aTOsiwocZyl_tWSwXIP_-80" value="" style="endArrow=none;html=1;rounded=0;entryX=0.5;entryY=0;entryDx=0;entryDy=0;exitX=0.5;exitY=1;exitDx=0;exitDy=0;" edge="1" parent="1" source="aTOsiwocZyl_tWSwXIP_-48" target="aTOsiwocZyl_tWSwXIP_-79">
          <mxGeometry relative="1" as="geometry">
            <mxPoint x="2273" y="420" as="sourcePoint" />
            <mxPoint x="2173" y="420" as="targetPoint" />
          </mxGeometry>
        </mxCell>
        <mxCell id="aTOsiwocZyl_tWSwXIP_-81" value="&lt;h1&gt;N&lt;/h1&gt;" style="resizable=0;html=1;whiteSpace=wrap;align=right;verticalAlign=bottom;" connectable="0" vertex="1" parent="aTOsiwocZyl_tWSwXIP_-80">
          <mxGeometry x="1" relative="1" as="geometry">
            <mxPoint x="20" y="15" as="offset" />
          </mxGeometry>
        </mxCell>
        <mxCell id="aTOsiwocZyl_tWSwXIP_-82" value="" style="endArrow=none;html=1;rounded=0;entryX=0.5;entryY=1;entryDx=0;entryDy=0;exitX=0.5;exitY=0;exitDx=0;exitDy=0;" edge="1" parent="1" source="aTOsiwocZyl_tWSwXIP_-74" target="aTOsiwocZyl_tWSwXIP_-79">
          <mxGeometry relative="1" as="geometry">
            <mxPoint x="2333" y="450" as="sourcePoint" />
            <mxPoint x="2333" y="520" as="targetPoint" />
          </mxGeometry>
        </mxCell>
        <mxCell id="aTOsiwocZyl_tWSwXIP_-83" value="&lt;h1&gt;1&lt;/h1&gt;" style="resizable=0;html=1;whiteSpace=wrap;align=right;verticalAlign=bottom;" connectable="0" vertex="1" parent="aTOsiwocZyl_tWSwXIP_-82">
          <mxGeometry x="1" relative="1" as="geometry">
            <mxPoint x="20" y="50" as="offset" />
          </mxGeometry>
        </mxCell>
        <mxCell id="aTOsiwocZyl_tWSwXIP_-84" value="&lt;h1&gt;指導&lt;/h1&gt;" style="shape=rhombus;perimeter=rhombusPerimeter;whiteSpace=wrap;html=1;align=center;fillColor=#fff2cc;strokeColor=#d6b656;" vertex="1" parent="1">
          <mxGeometry x="1683" y="240" width="120" height="60" as="geometry" />
        </mxCell>
        <mxCell id="aTOsiwocZyl_tWSwXIP_-85" value="" style="endArrow=none;html=1;rounded=0;entryX=0.591;entryY=-0.013;entryDx=0;entryDy=0;entryPerimeter=0;" edge="1" parent="1" target="aTOsiwocZyl_tWSwXIP_-46">
          <mxGeometry relative="1" as="geometry">
            <mxPoint x="1883" y="270" as="sourcePoint" />
            <mxPoint x="1963" y="330" as="targetPoint" />
          </mxGeometry>
        </mxCell>
        <mxCell id="aTOsiwocZyl_tWSwXIP_-86" value="" style="endArrow=none;html=1;rounded=0;entryX=1;entryY=0.5;entryDx=0;entryDy=0;" edge="1" parent="1" target="aTOsiwocZyl_tWSwXIP_-84">
          <mxGeometry relative="1" as="geometry">
            <mxPoint x="1883" y="270" as="sourcePoint" />
            <mxPoint x="1973" y="240" as="targetPoint" />
          </mxGeometry>
        </mxCell>
        <mxCell id="aTOsiwocZyl_tWSwXIP_-87" value="&lt;h1&gt;1&lt;/h1&gt;" style="resizable=0;html=1;whiteSpace=wrap;align=right;verticalAlign=bottom;" connectable="0" vertex="1" parent="aTOsiwocZyl_tWSwXIP_-86">
          <mxGeometry x="1" relative="1" as="geometry">
            <mxPoint x="20" y="20" as="offset" />
          </mxGeometry>
        </mxCell>
        <mxCell id="aTOsiwocZyl_tWSwXIP_-88" value="" style="endArrow=none;html=1;rounded=0;" edge="1" parent="1">
          <mxGeometry relative="1" as="geometry">
            <mxPoint x="1743" y="400" as="sourcePoint" />
            <mxPoint x="1813" y="400" as="targetPoint" />
            <Array as="points">
              <mxPoint x="1773" y="400" />
            </Array>
          </mxGeometry>
        </mxCell>
        <mxCell id="aTOsiwocZyl_tWSwXIP_-89" value="" style="endArrow=none;html=1;rounded=0;entryX=0.5;entryY=1;entryDx=0;entryDy=0;" edge="1" parent="1" target="aTOsiwocZyl_tWSwXIP_-84">
          <mxGeometry relative="1" as="geometry">
            <mxPoint x="1743" y="400" as="sourcePoint" />
            <mxPoint x="1727.4099999999999" y="380" as="targetPoint" />
          </mxGeometry>
        </mxCell>
        <mxCell id="aTOsiwocZyl_tWSwXIP_-90" value="&lt;h1&gt;N&lt;/h1&gt;" style="resizable=0;html=1;whiteSpace=wrap;align=right;verticalAlign=bottom;" connectable="0" vertex="1" parent="aTOsiwocZyl_tWSwXIP_-89">
          <mxGeometry x="1" relative="1" as="geometry">
            <mxPoint y="50" as="offset" />
          </mxGeometry>
        </mxCell>
      </root>
    </mxGraphModel>
  </diagram>
</mxfile>
